<svg id="Layer_1" data-name="Layer 1" xmlns="http://www.w3.org/2000/svg" viewBox="0 0 351.06 202.32"><defs><style>.cls-1{fill:#ecf2f9;}.cls-2,.cls-3,.cls-4,.cls-7{fill:none;}.cls-2,.cls-3{stroke:#76bae2;}.cls-2,.cls-3,.cls-4,.cls-6,.cls-7{stroke-linecap:round;stroke-width:6px;}.cls-2,.cls-4,.cls-6,.cls-7{stroke-linejoin:round;}.cls-3{stroke-miterlimit:10;}.cls-4{stroke:#73bade;}.cls-5,.cls-6{fill:#edf2f8;}.cls-6,.cls-7{stroke:#76bbde;}</style></defs><title>clouds</title><path class="cls-1" d="M791.49,383.42a2.93,2.93,0,0,0,.87.32c1.27.25,2.68-.49,3.94-.55a20.79,20.79,0,0,1,6.23.7,31.13,31.13,0,0,1,11.08,5.68,20.83,20.83,0,0,1,6.49,7.54c2.44,5.4,1.77,13.67-.67,19-2.24,4.87-6.82,7.39-12,8.17-5.88.89-12,.73-17.93.82-9.59.13-19.17.08-28.76,0-15.26-.13-30.51-.43-45.76-.68a20.29,20.29,0,0,1-5.34-.56,17.48,17.48,0,0,1-4.59-2.3c-3.67-2.39-7.35-5.57-8-9.89a11.54,11.54,0,0,1,1.05-6.53,16.6,16.6,0,0,1,16.44-9.3c2.16.21,4.76-4.48,6.1-5.82a19.09,19.09,0,0,1,15.12-5.38c.87.08,2.9.94,3.67.68s1.36-1.59,1.81-2.22c1-1.44,2.07-2.91,3.19-4.29a22.26,22.26,0,0,1,9.51-6.9,36.1,36.1,0,0,1,12.07-2.1c4.56-.09,9.25.41,13.33,2.47,3.87,2,6.88,5.17,9.62,8.46A10.27,10.27,0,0,0,791.49,383.42Z" transform="translate(-516.23 -367.76)"/><path class="cls-2" d="M792.33,388s11.72-3.42,18.34,4.25,5.42,14.92,5.42,14.92-1.39,11.95-21,11.95H745" transform="translate(-516.23 -367.76)"/><path class="cls-3" d="M733.86,419.14h-29s-8.41-3.16-7.41-11.95,6.3-10.06,13-10.63,10.77-7,10.77-7,5.34-4.81,10.81-5,7.41,1.44,7.41,1.44,6.94-14.66,19.64-15.15,19.52.78,24.43,4.59" transform="translate(-516.23 -367.76)"/><path class="cls-1" d="M564.08,433.5s15.66-3.27,27.71-.45c6.28,1.47,15.7,8.33,23,19.39,0,0,7.13-3.47,11.2-3.47,4.83,0,10.76,4.8,12.79,11.14,0,0,17.11-1.09,17.54,10.6s1.38,16-24.14,16-98.65,0-98.65,0-19-5.32-11.62-24.7c0,0,4.37-11,23.7-8.9C545.56,453.09,555.26,435.55,564.08,433.5Z" transform="translate(-516.23 -367.76)"/><path class="cls-4" d="M606.77,451.42s7.52-3.54,15.68-1.84,15.41,13,15.41,13,5.77-2.85,10.54-1.29,9.11,6.33,9.52,11.75-1.54,14.24-11,14.24H533.32s-15.3-3.24-14-16.73,9.62-22.15,26.15-20l2.52.84s8.71-17.28,21.85-21c9.4-2.66,15.35-3,25.18,5" transform="translate(-516.23 -367.76)"/><path class="cls-5" d="M840.56,570.08H725.07s-17.46-5.2-16.13-19,16.08-16.63,22.83-13.87A24.73,24.73,0,0,1,748,524.07c11.84-3.09,18.73,2.57,18.73,2.57s6.5-14.31,19.49-20.43c13.39-6.32,41.87,2.3,45.6,21.55l10.84-2c2.81-.47,19.13,1.51,20.31,18.61S854.65,569.49,840.56,570.08Z" transform="translate(-516.23 -367.76)"/><path class="cls-6" d="M818.62,563.86h25.72s20.19-.05,19.95-20.71-26.94-20.84-32.5-18.39c0,0-.61-15.11-17.64-20.57s-27.42-2.35-33.82,1a20,20,0,0,0-8.75,9.39" transform="translate(-516.23 -367.76)"/><path class="cls-7" d="M765.74,522.73s-23.83-9.05-32.89,9.19c-19.67-5.64-28.09,9.88-22.09,22.81,2.36,5.08,4.41,9.13,4.41,9.13h90.3" transform="translate(-516.23 -367.76)"/></svg>