<?xml version="1.0" encoding="utf-8"?>
<!-- Generator: Adobe Illustrator 23.0.3, SVG Export Plug-In . SVG Version: 6.00 Build 0)  -->
<svg version="1.1" id="Layer_1" xmlns="http://www.w3.org/2000/svg" xmlns:xlink="http://www.w3.org/1999/xlink" x="0px" y="0px"
	 viewBox="0 0 670 670" style="enable-background:new 0 0 670 670;" xml:space="preserve">
<style type="text/css">
	.st0{fill:#3E5FA5;}
	.st1{fill:#C5DAEF;}
</style>
<path class="st0" d="M670,254.2c0-42.3-28.8-79.2-69.8-89.6c-4.5-47.4-44.3-83.6-92-83.6c-17.8,0-35.2,5.1-50.1,14.9
	C440.9,28,371.7-13.1,303.8,4.2C258.7,15.7,223.5,50.9,212,96c-14.8-9.8-32.2-15-50.1-14.9c-47.6,0-87.4,36.2-92,83.6
	C20.5,177.1-9.6,227.2,2.8,276.7c10.3,41.2,47.4,70,89.8,70h485C628.7,346.7,670,305.3,670,254.2z"/>
<path class="st1" d="M127.3,670h184.7v-69.3H127.3V670z"/>
<path class="st1" d="M358.2,670h184.8v-69.3H358.2V670z"/>
<path class="st1" d="M312.1,496.7H127.3V566h184.7V496.7z"/>
<path class="st1" d="M543.1,496.7H358.2V566h184.8V496.7z"/>
<path class="st1" d="M312.1,392.9H127.3v69.3h184.7V392.9z"/>
<path class="st1" d="M543.1,392.9H358.2v69.3h184.8V392.9z"/>
<path class="st1" d="M127.3,358.2h184.7v-69.3H127.3V358.2z"/>
<path class="st1" d="M358.2,358.2h184.8v-69.3H358.2V358.2z"/>
<path class="st0" d="M150.4,519.8h23.1v23.1h-23.1V519.8z"/>
<path class="st0" d="M150.4,623.8h23.1v23.1h-23.1V623.8z"/>
<path class="st0" d="M392.9,519.8H416v23.1h-23.1V519.8z"/>
<path class="st0" d="M150.4,416h23.1v23.1h-23.1V416z"/>
<path class="st0" d="M392.9,416H416v23.1h-23.1V416z"/>
<path class="st0" d="M150.4,312h23.1v23.1h-23.1V312z"/>
<path class="st0" d="M392.9,312H416v23.1h-23.1V312z"/>
<path class="st0" d="M392.9,623.8H416v23.1h-23.1V623.8z"/>
<path class="st1" d="M254.4,242.7h23.1v23.1h-23.1V242.7z"/>
<path class="st1" d="M300.6,242.7h23.1v23.1h-23.1V242.7z"/>
<path class="st1" d="M346.7,242.7h23.1v23.1h-23.1V242.7z"/>
<path class="st1" d="M392.9,242.7H416v23.1h-23.1V242.7z"/>
<path class="st1" d="M439.1,242.7h23.1v23.1h-23.1V242.7z"/>
<path class="st1" d="M485.3,242.7h23.1v23.1h-23.1V242.7z"/>
<path class="st1" d="M531.5,242.7h23.1v23.1h-23.1V242.7z"/>
<path class="st1" d="M208.2,242.7h23.1v23.1h-23.1V242.7z"/>
<path class="st1" d="M161.9,242.7H185v23.1h-23.1V242.7z"/>
<path class="st1" d="M115.7,242.7h23.1v23.1h-23.1V242.7z"/>
</svg>
