<?xml version="1.0" encoding="utf-8"?>
<!-- Generator: Adobe Illustrator 23.0.3, SVG Export Plug-In . SVG Version: 6.00 Build 0)  -->
<svg version="1.1" id="Layer_1" xmlns="http://www.w3.org/2000/svg" xmlns:xlink="http://www.w3.org/1999/xlink" x="0px" y="0px"
	 viewBox="0 0 679 679" style="enable-background:new 0 0 679 679;" xml:space="preserve">
<style type="text/css">
	.st0{fill:#3E5FA5;}
	.st1{fill:#C5DAEF;}
	.st2{fill:#FFDA44;}
	.st3{fill:#006DF0;}
	.st4{fill:#E6E7E8;}
</style>
<path class="st0" d="M621.5,282.7c-31.8,0-57.6,25.8-57.6,57.5c0,31.8,25.8,57.6,57.6,57.6c31.8,0,57.6-25.8,57.6-57.6
	c0.1-31.7-25.6-57.4-57.3-57.5C621.6,282.7,621.6,282.7,621.5,282.7z M621.5,351.8c-6.4,0-11.5-5.2-11.5-11.5
	c0-6.3,5.2-11.5,11.5-11.5c6.4,0,11.5,5.2,11.5,11.5C632.9,346.6,627.7,351.8,621.5,351.8z"/>
<path class="st0" d="M386,104.8c22.5-22.5,22.5-58.9,0-81.3C363.5,1,327,1,304.6,23.5c-22.5,22.5-22.5,58.8,0,81.3
	C327,127.3,363.5,127.3,386,104.8z M333.7,64.1c0-6.4,5.2-11.5,11.5-11.5c6.4,0,11.5,5.2,11.5,11.5s-5.2,11.5-11.5,11.5
	S333.7,70.4,333.7,64.1z"/>
<path class="st0" d="M304.5,575.8c-22.5,22.5-22.5,58.9,0,81.3c22.5,22.5,58.9,22.5,81.3,0c22.5-22.5,22.5-58.8,0-81.3
	C363.5,553.3,327,553.3,304.5,575.8z M356.8,616.4c0,6.4-5.2,11.5-11.5,11.5c-6.4,0-11.5-5.2-11.5-11.5c0-6.4,5.2-11.5,11.5-11.5
	C351.6,604.9,356.8,610.1,356.8,616.4z"/>
<path class="st1" d="M0,340.3c0,108,87.6,195.6,195.6,195.6c108,0,195.6-87.6,195.6-195.6c0-108-87.5-195.6-195.6-195.6
	S0,232.3,0,340.3z M92.2,451.8c58.4,58.3,153.1,58.3,211.5,0C245.4,510.1,150.8,510.1,92.2,451.8z M138.1,340.3
	c0-31.8,25.8-57.5,57.6-57.5s57.5,25.8,57.5,57.5c0,31.8-25.8,57.6-57.5,57.6S138.1,372,138.1,340.3z M303.8,240.3
	c-58.4-58.4-153.1-58.4-211.5,0C150.8,181.9,245.4,181.9,303.8,240.3z"/>
<path class="st0" d="M253.2,340.3c0-31.8-25.8-57.5-57.5-57.5s-57.6,25.8-57.6,57.5c0,31.8,25.8,57.6,57.6,57.6
	S253.2,372,253.2,340.3z M184.1,340.3c0-6.4,5.2-11.5,11.5-11.5c6.4,0,11.5,5.2,11.5,11.5c0,6.3-5.2,11.5-11.5,11.5
	C189.3,351.8,184.1,346.7,184.1,340.3z"/>
<path class="st2" d="M207.1,340.3c0,6.3-5.1,11.5-11.5,11.5c-6.3,0-11.5-5.1-11.5-11.5c0-6.3,5.1-11.5,11.5-11.5
	C202,328.8,207.1,333.9,207.1,340.3z"/>
<path class="st3" d="M632.9,340.3c0,6.3-5.1,11.5-11.5,11.5s-11.5-5.1-11.5-11.5c0-6.3,5.1-11.5,11.5-11.5S632.9,333.9,632.9,340.3z
	"/>
<path class="st3" d="M356.8,64.1c0,6.3-5.1,11.5-11.5,11.5s-11.5-5.1-11.5-11.5s5.1-11.5,11.5-11.5S356.8,57.8,356.8,64.1z"/>
<path class="st3" d="M356.8,616.4c0,6.3-5.1,11.5-11.5,11.5s-11.5-5.1-11.5-11.5s5.1-11.5,11.5-11.5S356.8,610.1,356.8,616.4z"/>
<path class="st0" d="M372,107.1l16.2-16.2L600.4,303l-16.3,16.3L372,107.1z"/>
<path class="st0" d="M360.5,584.9l223.7-223.7l16.3,16.2L376.7,601.2L360.5,584.9z"/>
<path class="st4" d="M303.8,251.8c-3.1,0-6-1.2-8.1-3.4c-54-53.9-141.3-53.9-195.3,0c-4.5,4.5-11.8,4.5-16.3,0
	c-4.5-4.5-4.5-11.8,0-16.3c62.9-62.8,164.9-62.8,227.8,0c4.5,4.5,4.5,11.8,0,16.3C309.8,250.6,306.9,251.8,303.8,251.8z"/>
<path class="st4" d="M198,507c-42.8,0.1-83.7-16.8-113.9-47.2c-4.4-4.6-4.3-11.9,0.3-16.3c4.5-4.3,11.5-4.3,16,0
	c54,53.9,141.3,53.9,195.3,0c4.5-4.5,11.8-4.5,16.3,0c4.5,4.5,4.5,11.8,0,16.3C281.8,490.2,240.8,507.2,198,507z"/>
<path class="st4" d="M195.6,363.3c-12.7,0-23-10.3-23-23c0-12.7,10.3-23,23-23s23,10.3,23,23C218.7,353,208.4,363.3,195.6,363.3z"/>
<path class="st4" d="M621.5,363.3c-12.7,0-23-10.3-23-23c0-12.7,10.3-23,23-23c12.7,0,23,10.3,23,23
	C644.4,353,634.1,363.3,621.5,363.3z"/>
<path class="st4" d="M345.3,87.1c-12.7,0-23-10.3-23-23s10.3-23,23-23c12.7,0,23,10.3,23,23S358,87.1,345.3,87.1z"/>
<path class="st4" d="M345.3,639.5c-12.7,0-23-10.3-23-23c0-12.7,10.3-23,23-23c12.7,0,23,10.3,23,23
	C368.3,629.2,358,639.5,345.3,639.5z"/>
<path class="st0" d="M276.3,328.8h23v23h-23V328.8z"/>
<path class="st0" d="M310.7,328.8h23v23h-23V328.8z"/>
<path class="st0" d="M345.3,328.8h23v23h-23V328.8z"/>
<path class="st0" d="M414.3,328.8h23v23h-23V328.8z"/>
<path class="st0" d="M448.8,328.8h23v23h-23V328.8z"/>
<path class="st0" d="M483.4,328.8h23v23h-23V328.8z"/>
<path class="st0" d="M517.8,328.8h23v23h-23V328.8z"/>
</svg>
