<?xml version='1.0' encoding='iso-8859-1'?>
<!DOCTYPE svg PUBLIC '-//W3C//DTD SVG 1.1//EN' 'http://www.w3.org/Graphics/SVG/1.1/DTD/svg11.dtd'>
<svg version="1.1" xmlns="http://www.w3.org/2000/svg" viewBox="0 0 446.979 446.979" xmlns:xlink="http://www.w3.org/1999/xlink" enable-background="new 0 0 446.979 446.979">
  <g>
    <path d="M374.232,0H72.747c-4.142,0-7.5,3.358-7.5,7.5v402.235c0,20.536,16.708,37.244,37.244,37.244h241.998   c20.536,0,37.244-16.708,37.244-37.244V7.5C381.732,3.358,378.374,0,374.232,0z M366.732,409.735   c0,12.265-9.979,22.244-22.244,22.244H102.49c-12.265,0-22.244-9.979-22.244-22.244V15h286.485V409.735z"/>
    <path d="m92.747,364.08h261.485c2.761,0 5-2.239 5-5v-331.58c0-2.761-2.239-5-5-5h-261.485c-2.761,0-5,2.239-5,5v331.58c0,2.761 2.239,5 5,5zm5-331.58h251.485v321.58h-251.485v-321.58z"/>
    <path d="m266.994,376.936h-22.969c-5.344-5.107-12.576-8.254-20.533-8.254-7.958,0-15.19,3.147-20.534,8.254h-22.963c-11.855,0-21.5,9.641-21.5,21.49 0,5.732 2.233,11.13 6.294,15.206 4.06,4.059 9.459,6.294 15.206,6.294h22.964c5.344,5.107 12.576,8.253 20.533,8.253 7.957,0 15.189-3.147 20.533-8.253h22.97c11.85,0 21.49-9.645 21.49-21.5 0-5.74-2.235-11.137-6.294-15.196s-9.457-6.294-15.197-6.294zm-95.129,29.63c-2.174-2.182-3.371-5.073-3.371-8.141 0-6.336 5.159-11.49 11.5-11.49h16.06c-1.488,3.539-2.312,7.422-2.312,11.495s0.824,7.957 2.313,11.495h-16.061c-3.075,0.001-5.964-1.195-8.129-3.359zm51.626,11.613c-10.89,0-19.749-8.859-19.749-19.749 0-10.89 8.859-19.749 19.749-19.749 10.889,0 19.749,8.859 19.749,19.749 0,10.89-8.859,19.749-19.749,19.749zm43.503-8.253h-16.067c1.488-3.539 2.313-7.422 2.313-11.495s-0.824-7.957-2.312-11.495h16.067c3.068,0 5.954,1.195 8.124,3.366s3.366,5.056 3.366,8.125c-0.001,6.34-5.155,11.499-11.491,11.499z"/>
    <path d="m329.984,53.498h-200.99c-2.761,0-5,2.239-5,5s2.239,5 5,5h200.99c2.761,0 5-2.239 5-5s-2.239-5-5-5z"/>
    <path d="m329.984,80.996h-212.99c-2.761,0-5,2.239-5,5s2.239,5 5,5h212.989c2.761,0 5-2.239 5-5s-2.238-5-4.999-5z"/>
    <path d="m329.984,108.495h-212.99c-2.761,0-5,2.239-5,5s2.239,5 5,5h212.989c2.761,0 5-2.239 5-5s-2.238-5-4.999-5z"/>
    <path d="m329.984,135.994h-212.99c-2.761,0-5,2.239-5,5s2.239,5 5,5h212.989c2.761,0 5-2.239 5-5s-2.238-5-4.999-5z"/>
    <path d="m329.984,163.492h-212.99c-2.761,0-5,2.239-5,5s2.239,5 5,5h212.989c2.761,0 5-2.239 5-5s-2.238-5-4.999-5z"/>
    <path d="m329.984,190.991h-212.99c-2.761,0-5,2.239-5,5s2.239,5 5,5h212.989c2.761,0 5-2.239 5-5s-2.238-5-4.999-5z"/>
    <path d="m116.994,228.489h134.244c2.761,0 5-2.239 5-5s-2.239-5-5-5h-134.244c-2.761,0-5,2.239-5,5s2.239,5 5,5z"/>
    <path d="m329.984,245.988h-200.99c-2.761,0-5,2.239-5,5s2.239,5 5,5h200.99c2.761,0 5-2.239 5-5s-2.239-5-5-5z"/>
    <path d="m329.984,273.487h-212.99c-2.761,0-5,2.239-5,5s2.239,5 5,5h212.989c2.761,0 5-2.239 5-5s-2.238-5-4.999-5z"/>
    <path d="m182.241,300.985h-65.247c-2.761,0-5,2.239-5,5s2.239,5 5,5h65.247c2.761,0 5-2.239 5-5s-2.238-5-5-5z"/>
  </g>
</svg>
