<?xml version="1.0" encoding="utf-8"?>
<!-- Generator: Adobe Illustrator 23.0.3, SVG Export Plug-In . SVG Version: 6.00 Build 0)  -->
<svg version="1.1" id="Layer_1" xmlns="http://www.w3.org/2000/svg" xmlns:xlink="http://www.w3.org/1999/xlink" x="0px" y="0px"
	 viewBox="0 0 480 480" style="enable-background:new 0 0 480 480;" xml:space="preserve">
<style type="text/css">
	.st0{fill:#C5DAEF;}
	.st1{fill:#FFFFFF;}
	.st2{fill:#3E5FA5;}
</style>
<path class="st0" d="M300,193.4c5.3,30.9,5.3,62.4,0,93.3c20.2,4,39.3,12.2,56.1,24.1c26.4-43.4,26.4-98,0-141.4
	C339.3,181.2,320.2,189.4,300,193.4L300,193.4z"/>
<path class="st0" d="M179.9,286.6c-5.3-30.9-5.3-62.4,0-93.3c-20.2-4-39.3-12.2-56.1-24.1c-26.4,43.4-26.4,98,0,141.4
	C140.6,298.8,159.7,290.6,179.9,286.6L179.9,286.6z"/>
<path class="st1" d="M256,24c0,8.8-7.2,16-16,16s-16-7.2-16-16s7.2-16,16-16S256,15.2,256,24z"/>
<path class="st0" d="M179.9,286.6c39.5-8.8,80.6-8.8,120.1,0c5.3-30.9,5.3-62.4,0-93.3c-19.7,4.5-39.8,6.7-60.1,6.6
	c-20.2,0.1-40.4-2.1-60.1-6.6C174.7,224.2,174.7,255.8,179.9,286.6z"/>
<path class="st0" d="M300,193.4c20.2-4,39.3-12.2,56.1-24.1C331.5,128.7,287.4,104,240,104C267.6,104,291.1,141.3,300,193.4z"/>
<path class="st0" d="M123.8,169.3c16.8,11.9,35.9,20.1,56.1,24.1c9-52.1,32.5-89.4,60.1-89.4C192.5,103.9,148.5,128.7,123.8,169.3z"
	/>
<path class="st0" d="M179.9,193.4c19.7,4.5,39.8,6.7,60.1,6.6c20.2,0.1,40.4-2.1,60.1-6.6c-9-52.1-32.4-89.4-60.1-89.4
	S188.9,141.3,179.9,193.4z"/>
<path class="st0" d="M300,286.6c-9,52.1-32.4,89.4-60.1,89.4c47.5,0.1,91.5-24.7,116.2-65.3C339.4,298.8,320.2,290.6,300,286.6
	L300,286.6z"/>
<path class="st0" d="M179.9,286.6c-20.2,4-39.3,12.2-56.1,24.1C148.5,351.3,192.5,376,240,376C212.4,376,188.9,338.7,179.9,286.6z"
	/>
<path class="st0" d="M300,286.6c-39.5-8.8-80.6-8.8-120.1,0c9,52.1,32.4,89.4,60.1,89.4S291.1,338.7,300,286.6z"/>
<path class="st1" d="M48,149.9c7.7,4.4,17.4,1.8,21.9-5.9c0.3-0.6,0.6-1.2,0.8-1.8l-3.9-2.2l3.9,2.2c3.4-7.9-0.1-17.1-7.9-20.7
	c-7.8-3.7-17.1-0.5-21,7.1C37.8,136.2,40.5,145.6,48,149.9z"/>
<path class="st1" d="M64,365.9c7.7-4.4,10.3-14.2,5.9-21.9s-14.2-10.3-21.9-5.9s-10.3,14.2-5.9,21.9S56.3,370.3,64,365.9z"/>
<path class="st1" d="M256,456c0,8.8-7.2,16-16,16s-16-7.2-16-16s7.2-16,16-16S256,447.2,256,456z"/>
<path class="st1" d="M416,365.9c7.7,4.4,17.4,1.8,21.9-5.9c4.4-7.7,1.8-17.4-5.9-21.9s-17.4-1.8-21.9,5.9S408.3,361.4,416,365.9z"/>
<path class="st1" d="M409.3,142.2l3.9-2.2L409.3,142.2c0.2,0.6,0.5,1.2,0.8,1.8c4.2,8,14,11.2,22.1,7.3c8.1-4,11.7-13.7,7.9-21.9
	s-13.3-12-21.7-8.6C410.2,124.3,406.1,133.8,409.3,142.2z"/>
<path class="st2" d="M232,40h16v64h-16V40z"/>
<path class="st2" d="M62.8,146.9l8-13.9l55.4,32l-8,13.9L62.8,146.9z"/>
<path class="st2" d="M232,376h16v64h-16V376z"/>
<path class="st2" d="M240,384c-40.4,0-72-63.3-72-144s31.6-144,72-144s72,63.3,72,144S280.4,384,240,384z M240,112
	c-27,0-56,51.4-56,128s29,128,56,128s56-51.4,56-128S267,112,240,112z"/>
<path class="st2" d="M240,208c-20.8,0.1-41.6-2.2-61.9-6.8c-21.3-4.2-41.5-12.9-59.2-25.5l-5.7-4.4l3.7-6.1
	C143.1,122.2,189.7,96,240,96c50.3,0,96.9,26.2,123,69.1l3.7,6.1l-5.7,4.4c-17.7,12.6-37.9,21.3-59.2,25.6
	C281.6,205.8,260.8,208.1,240,208z M134.7,167.2c14.5,8.8,30.4,15,47,18.4c19.1,4.4,38.7,6.5,58.3,6.4c19.6,0.1,39.1-2,58.2-6.4
	c16.6-3.4,32.5-9.6,47-18.4C321.4,132.6,282,112,240,112S158.6,132.6,134.7,167.2z"/>
<path class="st2" d="M240,384c-50.3,0.2-97-26-123-69.1l-3.7-6.1l5.7-4.4c17.7-12.6,37.9-21.3,59.2-25.6c20.3-4.6,41-6.9,61.9-6.8
	c20.8-0.1,41.6,2.2,61.9,6.8c21.3,4.2,41.5,12.9,59.2,25.5l5.7,4.4l-3.7,6.1C337,358,290.3,384.2,240,384z M134.7,312.8
	C158.6,347.4,198,368,240,368s81.4-20.6,105.3-55.2c-14.5-8.8-30.4-15-47-18.4c-38.4-8.6-78.2-8.6-116.6,0
	C165.1,297.8,149.2,304,134.7,312.8z"/>
<path class="st2" d="M62.8,333.1l55.4-32l8,13.9l-55.4,32L62.8,333.1z"/>
<path class="st2" d="M353.8,314.9l8-13.9l55.4,32l-8,13.9L353.8,314.9z"/>
<path class="st2" d="M353.8,165.1l55.4-32l8,13.9l-55.4,32L353.8,165.1z"/>
<path class="st0" d="M216.8,47.5l-8.3-13.7l13.7-8.3l8.3,13.7L216.8,47.5z M80.1,130.7L71.8,117l13.7-8.3l8.3,13.7L80.1,130.7z
	 M107.4,114l-8.3-13.7l13.7-8.4l8.3,13.7L107.4,114z M134.8,97.4l-8.3-13.7l13.7-8.3l8.3,13.7L134.8,97.4z M162.1,80.8l-8.3-13.7
	l13.7-8.3l8.3,13.7L162.1,80.8z M189.4,64.1l-8.3-13.7l13.7-8.3l8.3,13.7L189.4,64.1z"/>
<path class="st0" d="M64,336H48v-16h16V336z M64,304H48v-16h16V304z M64,272H48v-16h16V272z M64,240H48v-16h16V240z M64,208H48v-16
	h16V208z M64,176H48v-16h16V176z"/>
<path class="st0" d="M222.1,455.1l-13.9-7.9l7.9-13.9l13.9,7.9L222.1,455.1z M194.3,439.4l-13.9-7.9l7.9-13.9l13.9,7.9L194.3,439.4z
	 M166.4,423.6l-13.9-7.9l7.9-13.9l13.9,7.9L166.4,423.6z M138.5,407.9l-13.9-7.9l7.9-13.9l13.9,7.9L138.5,407.9z M110.7,392.1
	l-13.9-7.9l7.9-13.9l13.9,7.9L110.7,392.1z M82.8,376.4l-13.9-7.9l7.9-13.9l13.9,7.9L82.8,376.4z"/>
<path class="st0" d="M260.8,453.4l-7.9-13.9l13.9-7.9l7.9,13.9L260.8,453.4z M288.6,437.7l-7.8-13.9l13.9-7.9l7.9,13.9L288.6,437.7z
	 M316.5,421.9l-7.8-13.9l13.9-7.9l7.9,13.9L316.5,421.9z M344.3,406.2l-7.9-13.9l13.9-7.9l7.9,13.9L344.3,406.2z M372.2,390.4
	l-7.9-13.9l13.9-7.9l7.9,13.9L372.2,390.4z M400.1,374.6l-7.9-13.9l13.9-7.9l7.9,13.9L400.1,374.6z"/>
<path class="st0" d="M432,336h-16v-16h16V336z M432,304h-16v-16h16V304z M432,272h-16v-16h16V272z M432,240h-16v-16h16V240z
	 M432,208h-16v-16h16V208z M432,176h-16v-16h16V176z"/>
<path class="st0" d="M406.2,134.5l-13.7-8.3l8.3-13.7l13.7,8.3L406.2,134.5z M378.9,117.9l-13.7-8.3l8.3-13.7l13.6,8.3L378.9,117.9z
	 M351.5,101.2l-13.7-8.3l8.3-13.7l13.7,8.3L351.5,101.2z M324.2,84.6l-13.7-8.3l8.3-13.7l13.7,8.3L324.2,84.6z M296.9,68l-13.7-8.3
	l8.3-13.7l13.7,8.3L296.9,68z M269.5,51.4L255.9,43l8.3-13.7l13.7,8.3L269.5,51.4z"/>
<path class="st2" d="M240,16c-4.4,0-8,3.6-8,8s3.6,8,8,8s8-3.6,8-8S244.4,16,240,16z M240,48c-13.3,0-24-10.7-24-24s10.7-24,24-24
	s24,10.7,24,24S253.2,48,240,48z"/>
<path class="st2" d="M424,128c-3.6,0-6.8,2.4-7.7,5.9c-0.9,3.5,0.6,7.2,3.7,9s7.1,1.3,9.7-1.3c2.6-2.6,3.1-6.5,1.3-9.7
	C429.5,129.5,426.8,128,424,128z M424,160c-12,0-22.2-8.9-23.8-20.9c-1.6-11.9,5.9-23.2,17.6-26.3s23.8,2.9,28.4,14s0.2,24-10.2,30
	C432.4,158.9,428.2,160,424,160L424,160z"/>
<path class="st2" d="M424,376c-10.9,0-20.4-7.3-23.2-17.8c-2.8-10.5,1.8-21.6,11.2-27c9.4-5.4,21.3-3.9,29,3.8
	c7.7,7.7,9.2,19.6,3.8,29C440.5,371.4,432.6,376,424,376z M424,344c-4,0-7.4,3-7.9,7c-0.5,4,2,7.7,5.9,8.8s7.9-1,9.5-4.7
	c1.5-3.7,0.1-8-3.4-10C426.8,344.4,425.4,344,424,344z"/>
<path class="st2" d="M240,480c-13.3,0-24-10.7-24-24s10.7-24,24-24s24,10.7,24,24S253.2,480,240,480z M240,448c-4.4,0-8,3.6-8,8
	s3.6,8,8,8s8-3.6,8-8S244.4,448,240,448z"/>
<path class="st2" d="M56,376c-12,0-22.2-8.9-23.8-20.9c-1.6-11.9,5.9-23.2,17.6-26.3c11.6-3.1,23.8,2.9,28.4,14s0.2,24-10.2,30
	C64.3,374.9,60.2,376,56,376z M56,344c-3.6,0-6.8,2.4-7.7,5.9c-0.9,3.5,0.6,7.2,3.7,9s7.1,1.3,9.7-1.3c2.6-2.6,3.1-6.5,1.3-9.7
	C61.5,345.5,58.8,344,56,344z"/>
<path class="st2" d="M56,160c-10.9,0-20.4-7.3-23.2-17.8c-2.8-10.5,1.8-21.6,11.2-27c9.4-5.4,21.3-3.9,29,3.8
	c7.7,7.7,9.2,19.6,3.8,29C72.5,155.4,64.6,160,56,160z M56,128c-4,0-7.4,3-7.9,7c-0.5,4,2,7.7,5.9,8.8s7.9-1,9.5-4.7
	c1.5-3.7,0.1-8-3.4-10C58.8,128.4,57.4,128,56,128z"/>
<path class="st2" d="M240,384c-65.5,0-122.7-44.2-139.3-107.5c-16.6-63.4,11.7-129.9,68.8-162c57.1-32.1,128.6-21.6,174.1,25.5
	c45.5,47.1,53.5,119,19.4,174.9C337,358,290.3,384.2,240,384z M240,112c-58.2,0-109.1,39.3-123.8,95.6
	c-14.7,56.3,10.4,115.5,61.1,144c50.7,28.5,114.3,19.2,154.8-22.7s47.5-105.8,17.3-155.5C326.2,135.1,284.7,111.8,240,112z"/>
</svg>
