<svg id="Layer_1" data-name="Layer 1" xmlns="http://www.w3.org/2000/svg" viewBox="0 0 416.02 480"><defs><style>.cls-1{fill:#c5daef;}.cls-2{fill:#fff;}.cls-3{fill:#3e5fa5;}</style></defs><title>global-network</title><path class="cls-1" d="M300,193.37a277.56,277.56,0,0,1,0,93.26,145.82,145.82,0,0,1,56.08,24.08,136,136,0,0,0,0-141.44A145.52,145.52,0,0,1,300,193.35Z" transform="translate(-32)"/><path class="cls-1" d="M179.93,286.63a277.56,277.56,0,0,1,0-93.26,145.82,145.82,0,0,1-56.08-24.08,136,136,0,0,0,0,141.44,145.52,145.52,0,0,1,56.08-24.08Z" transform="translate(-32)"/><path class="cls-2" d="M256,24A16,16,0,1,1,240,8,16,16,0,0,1,256,24Z" transform="translate(-32)"/><path class="cls-1" d="M179.93,286.63a275.31,275.31,0,0,1,120.11,0,277.56,277.56,0,0,0,0-93.26A265.53,265.53,0,0,1,240,200a265.51,265.51,0,0,1-60-6.63A277.56,277.56,0,0,0,179.93,286.63Z" transform="translate(-32)"/><path class="cls-1" d="M300,193.37a145.82,145.82,0,0,0,56.08-24.08A135.71,135.71,0,0,0,240,104C267.61,104,291.07,141.27,300,193.37Z" transform="translate(-32)"/><path class="cls-1" d="M123.82,169.28a145.71,145.71,0,0,0,56.09,24.08C188.9,141.27,212.36,104,240,104A135.73,135.73,0,0,0,123.82,169.28Z" transform="translate(-32)"/><path class="cls-1" d="M179.93,193.37A265.51,265.51,0,0,0,240,200,265.53,265.53,0,0,0,300,193.37c-9-52.1-32.43-89.37-60.06-89.37S188.9,141.27,179.93,193.37Z" transform="translate(-32)"/><path class="cls-1" d="M300,286.63c-9,52.1-32.43,89.37-60.06,89.37a135.7,135.7,0,0,0,116.16-65.28,145.63,145.63,0,0,0-56.07-24.08Z" transform="translate(-32)"/><path class="cls-1" d="M179.93,286.63a145.82,145.82,0,0,0-56.08,24.08A135.71,135.71,0,0,0,240,376C212.36,376,188.9,338.73,179.93,286.63Z" transform="translate(-32)"/><path class="cls-1" d="M300,286.63a275.31,275.31,0,0,0-120.11,0c9,52.1,32.43,89.37,60,89.37S291.07,338.73,300,286.63Z" transform="translate(-32)"/><path class="cls-2" d="M48,149.86A16,16,0,0,0,69.84,144a15.68,15.68,0,0,0,.8-1.77L66.78,140l3.86,2.23A16,16,0,1,0,48,149.86Z" transform="translate(-32)"/><path class="cls-2" d="M64,365.86A16,16,0,1,0,42.13,360,16,16,0,0,0,64,365.86Z" transform="translate(-32)"/><path class="cls-2" d="M256,456a16,16,0,1,1-16-16A16,16,0,0,1,256,456Z" transform="translate(-32)"/><path class="cls-2" d="M416,365.86A16,16,0,1,0,410.13,344,16,16,0,0,0,416,365.86Z" transform="translate(-32)"/><path class="cls-2" d="M409.33,142.22l3.86-2.22-3.86,2.22a15.83,15.83,0,0,0,.8,1.78,16.73,16.73,0,1,0-.8-1.78Z" transform="translate(-32)"/><path class="cls-3" d="M232,40h16v64H232Z" transform="translate(-32)"/><path class="cls-3" d="M62.78,146.93l8-13.85,55.42,32-8,13.85Z" transform="translate(-32)"/><path class="cls-3" d="M232,376h16v64H232Z" transform="translate(-32)"/><path class="cls-3" d="M240,384c-40.37,0-72-63.26-72-144S199.61,96,240,96s72,63.26,72,144S280.36,384,240,384Zm0-272c-27,0-56,51.43-56,128s29,128,56,128,56-51.43,56-128S267,112,240,112Z" transform="translate(-32)"/><path class="cls-3" d="M240,208a271.46,271.46,0,0,1-61.9-6.85,153.14,153.14,0,0,1-59.15-25.54l-5.66-4.38,3.71-6.1a144,144,0,0,1,246,0l3.72,6.1L361,175.61a153.37,153.37,0,0,1-59.2,25.55A271.6,271.6,0,0,1,240,208ZM134.71,167.2a149,149,0,0,0,47,18.4A255.83,255.83,0,0,0,240,192a255.4,255.4,0,0,0,58.25-6.4,149.32,149.32,0,0,0,47-18.4,128,128,0,0,0-210.55,0Z" transform="translate(-32)"/><path class="cls-3" d="M240,384a142.91,142.91,0,0,1-123-69.13l-3.71-6.1,5.66-4.38a153.37,153.37,0,0,1,59.2-25.55A271.58,271.58,0,0,1,240,272a271.48,271.48,0,0,1,61.91,6.85A153.14,153.14,0,0,1,361,304.39l5.66,4.38-3.72,6.1A142.88,142.88,0,0,1,240,384ZM134.71,312.8a128,128,0,0,0,210.55,0,149,149,0,0,0-47-18.4,267.09,267.09,0,0,0-116.55,0A149.32,149.32,0,0,0,134.71,312.8Z" transform="translate(-32)"/><path class="cls-3" d="M62.77,333.07l55.43-32,8,13.86-55.43,32Z" transform="translate(-32)"/><path class="cls-3" d="M353.77,314.93l8-13.86,55.42,32-8,13.86Z" transform="translate(-32)"/><path class="cls-3" d="M353.77,165.07l55.43-32,8,13.86-55.42,32Z" transform="translate(-32)"/><path class="cls-1" d="M216.79,47.47,208.46,33.8l13.68-8.31,8.32,13.71ZM80.1,130.67,71.78,117l13.67-8.32,8.32,13.66ZM107.43,114l-8.32-13.67L112.79,92l8.32,13.67ZM134.77,97.4l-8.32-13.67,13.67-8.32,8.32,13.67Zm27.34-16.63L153.79,67.1l13.67-8.32,8.32,13.67Zm27.34-16.64L181.14,50.4l13.67-8.31,8.32,13.67Z" transform="translate(-32)"/><path class="cls-1" d="M64,336H48V320H64Zm0-32H48V288H64Zm0-32H48V256H64Zm0-32H48V224H64Zm0-32H48V192H64Zm0-32H48V160H64Z" transform="translate(-32)"/><path class="cls-1" d="M222.13,455.13l-13.93-7.88,7.87-13.93L230,441.19Zm-27.86-15.76-13.93-7.87,7.87-13.93,13.93,7.87Zm-27.89-15.75-13.92-7.88,7.88-13.92,13.93,7.87Zm-27.85-15.76L124.64,400l7.87-13.94L146.44,394Zm-27.85-15.75-13.89-7.88,7.87-13.93,13.93,7.88ZM82.82,376.35,68.9,368.48l7.88-13.93,13.92,7.88Z" transform="translate(-32)"/><path class="cls-1" d="M260.79,453.45l-7.88-13.93,13.92-7.87,7.87,13.92Zm27.84-15.75-7.84-13.93,13.92-7.88,7.88,13.93ZM316.49,422,308.64,408l13.92-7.87,7.88,13.92Zm27.85-15.77-7.88-13.92,13.93-7.88,7.88,13.93Zm27.87-15.78-7.87-13.93,13.93-7.87,7.87,13.93Zm27.86-15.75-7.87-13.93,13.93-7.88L414,366.78Z" transform="translate(-32)"/><path class="cls-1" d="M432,336H416V320h16Zm0-32H416V288h16Zm0-32H416V256h16Zm0-32H416V224h16Zm0-32H416V192h16Zm0-32H416V160h16Z" transform="translate(-32)"/><path class="cls-1" d="M406.23,134.51l-13.68-8.31,8.32-13.67,13.67,8.31Zm-27.34-16.63-13.68-8.28,8.33-13.67,13.64,8.28Zm-27.35-16.63-13.66-8.32,8.32-13.67,13.66,8.31ZM324.21,84.62,310.54,76.3l8.32-13.68L332.53,71ZM296.87,68l-13.69-8.34L291.5,46l13.67,8.32ZM269.54,51.36,255.86,43l8.32-13.67,13.68,8.31Z" transform="translate(-32)"/><path class="cls-3" d="M240,16a8,8,0,1,0,8,8A8,8,0,0,0,240,16Zm0,32a24,24,0,1,1,24-24A24,24,0,0,1,240,48Z" transform="translate(-32)"/><path class="cls-3" d="M424,128a8,8,0,1,0,6.94,4A8,8,0,0,0,424,128Zm.06,32A24,24,0,1,1,436,156.8,24,24,0,0,1,424,160Z" transform="translate(-32)"/><path class="cls-3" d="M424,376a24,24,0,1,1,20.81-12A24,24,0,0,1,424,376Zm0-32a8,8,0,1,0,4,1.07A8,8,0,0,0,424,344Z" transform="translate(-32)"/><path class="cls-3" d="M240,480a24,24,0,1,1,24-24A24,24,0,0,1,240,480Zm0-32a8,8,0,1,0,8,8A8,8,0,0,0,240,448Z" transform="translate(-32)"/><path class="cls-3" d="M56,376a24,24,0,1,1,12-3.2A24,24,0,0,1,56,376ZM56,344a8,8,0,1,0,6.94,4A8,8,0,0,0,56,344Z" transform="translate(-32)"/><path class="cls-3" d="M56,160a24,24,0,1,1,20.81-12A24,24,0,0,1,56,160Zm0-32a8,8,0,1,0,4,1.07A8,8,0,0,0,56,128Z" transform="translate(-32)"/><path class="cls-3" d="M240,384a144,144,0,1,1,123-69.11A144,144,0,0,1,240,384Zm0-272a128,128,0,1,0,109.34,61.46A128,128,0,0,0,240,112Z" transform="translate(-32)"/></svg>