<?xml version="1.0" encoding="utf-8"?>
<!-- Generator: Adobe Illustrator 23.0.3, SVG Export Plug-In . SVG Version: 6.00 Build 0)  -->
<svg version="1.1" id="Layer_1" xmlns="http://www.w3.org/2000/svg" xmlns:xlink="http://www.w3.org/1999/xlink" x="0px" y="0px"
	 viewBox="0 0 511 511" style="enable-background:new 0 0 511 511;" xml:space="preserve">
<style type="text/css">
	.st0{fill:#E6E7E8;}
	.st1{fill:#6BB4FC;}
	.st2{fill:#9BC9FF;}
	.st3{fill:#3E5FA5;}
</style>
<path class="st0" d="M114.7,441.4H53c-4.9,0-8.8-3.9-8.8-8.8s3.9-8.8,8.8-8.8h61.7c14.6,0,26.4-11.8,26.4-26.4V265.2
	c0-4.9,3.9-8.8,8.8-8.8s8.8,3.9,8.8,8.8v132.1C158.7,421.6,139,441.3,114.7,441.4z"/>
<path class="st0" d="M255.6,476.6c-4.9,0-8.8-3.9-8.8-8.8V265.2c0-4.9,3.9-8.8,8.8-8.8c4.9,0,8.8,3.9,8.8,8.8v202.6
	C264.4,472.7,260.4,476.6,255.6,476.6z"/>
<path class="st0" d="M458.2,441.4h-61.7c-24.3,0-44-19.7-44-44V265.2c0-4.9,3.9-8.8,8.8-8.8c4.9,0,8.8,3.9,8.8,8.8v132.1
	c0,14.6,11.8,26.4,26.4,26.4h61.7c4.9,0,8.8,3.9,8.8,8.8S463,441.4,458.2,441.4z"/>
<path class="st1" d="M511,194.8c0-32.3-21.9-60.4-53.2-68.3c-3.4-36.1-33.8-63.8-70.1-63.8c-13.6,0-26.9,3.9-38.2,11.4
	C336.3,22.2,283.5-9.2,231.7,4c-34.4,8.8-61.2,35.6-70,70c-11.4-7.4-24.6-11.4-38.2-11.4c-36.3,0-66.7,27.6-70.1,63.8
	c-37.7,9.5-60.7,47.7-51.2,85.5c7.9,31.4,36.1,53.4,68.5,53.3h369.9C479.5,265.2,511,233.7,511,194.8z"/>
<path class="st2" d="M255.6,511.8c14.6,0,26.4-11.8,26.4-26.4c0-14.6-11.8-26.4-26.4-26.4c-14.6,0-26.4,11.8-26.4,26.4
	C229.2,500,241,511.8,255.6,511.8z"/>
<path class="st2" d="M484.6,459c14.6,0,26.4-11.8,26.4-26.4s-11.8-26.4-26.4-26.4c-14.6,0-26.4,11.8-26.4,26.4S470,459,484.6,459z"
	/>
<path class="st2" d="M26.6,406.1C12,406.1,0.2,418,0.2,432.6S12,459,26.6,459S53,447.2,53,432.6S41.2,406.1,26.6,406.1z"/>
<path class="st3" d="M246.8,230h17.6v17.6h-17.6V230z"/>
<path class="st3" d="M282,230h17.6v17.6H282V230z"/>
<path class="st3" d="M317.2,230h17.6v17.6h-17.6V230z"/>
<path class="st3" d="M352.5,230h17.6v17.6h-17.6V230z"/>
<path class="st3" d="M387.7,230h17.6v17.6h-17.6V230z"/>
<path class="st3" d="M422.9,230h17.6v17.6h-17.6V230z"/>
<path class="st3" d="M211.5,230h17.6v17.6h-17.6V230z"/>
<path class="st3" d="M176.3,230h17.6v17.6h-17.6V230z"/>
<path class="st3" d="M141.1,230h17.6v17.6h-17.6V230z"/>
<path class="st3" d="M105.8,230h17.6v17.6h-17.6V230z"/>
<path class="st3" d="M70.6,230h17.6v17.6H70.6V230z"/>
<path class="st3" d="M246.8,476.6h17.6v17.6h-17.6V476.6z"/>
<path class="st3" d="M475.8,423.8h17.6v17.6h-17.6V423.8z"/>
<path class="st3" d="M273.2,282.8h17.6v17.6h-17.6V282.8z"/>
<path class="st3" d="M273.2,318.1h17.6v17.6h-17.6V318.1z"/>
<path class="st3" d="M273.2,353.3h17.6v17.6h-17.6V353.3z"/>
<path class="st3" d="M273.2,388.5h17.6v17.6h-17.6V388.5z"/>
<path class="st3" d="M378.9,282.8h17.6v17.6h-17.6V282.8z"/>
<path class="st3" d="M378.9,318.1h17.6v17.6h-17.6V318.1z"/>
<path class="st3" d="M378.9,353.3h17.6v17.6h-17.6V353.3z"/>
<path class="st3" d="M378.9,388.5h17.6v17.6h-17.6V388.5z"/>
<path class="st3" d="M17.8,423.8h17.6v17.6H17.8V423.8z"/>
<path class="st3" d="M114.7,282.8h17.6v17.6h-17.6V282.8z"/>
<path class="st3" d="M114.7,318.1h17.6v17.6h-17.6V318.1z"/>
<path class="st3" d="M114.7,353.3h17.6v17.6h-17.6V353.3z"/>
<path class="st3" d="M114.7,388.5h17.6v17.6h-17.6V388.5z"/>
<path class="st3" d="M273.2,423.8h17.6v17.6h-17.6V423.8z"/>
</svg>
