<svg id="Layer_1" data-name="Layer 1" xmlns="http://www.w3.org/2000/svg" viewBox="0 0 969.68 402.43"><defs><style>.cls-1{fill:#3d5fa5;}.cls-2{fill:#3d5fa4;}.cls-3{fill:#3d60a5;}.cls-4{fill:#3e60a2;}.cls-5{fill:#3c60a5;}.cls-6{fill:#3c5fa5;}.cls-7{fill:#3e5fa5;}.cls-8{fill:#3a60a5;}.cls-9{fill:#3f60a3;}.cls-10{fill:#3f5fa8;}.cls-11{fill:#4b5f80;}.cls-12{fill:#3c5fa4;}.cls-13{fill:#4462a2;}.cls-14{fill:#3f5ea8;}.cls-15{fill:#3c609f;}.cls-16{fill:#4261a3;}.cls-17{fill:#3f60a9;}.cls-18{fill:#4462a0;}.cls-19{fill:#3c60a7;}.cls-20{fill:#4262a6;}.cls-21{fill:#4863a0;}.cls-22{fill:#f6fbf6;}.cls-23{fill:#fafcf8;}.cls-24{fill:#3e5fa4;}.cls-25{fill:#4e5e82;}.cls-26{fill:#4e5d83;}.cls-27{fill:#4d5c93;}.cls-28{fill:#4a69a6;}.cls-29{fill:#4161a4;}.cls-30{fill:#4c6082;}.cls-31{fill:#4b67aa;}.cls-32{fill:#4a5f80;}.cls-33{fill:#4e5f80;}.cls-34{fill:#4b6081;}.cls-35{fill:#4b5f87;}.cls-36{fill:#4463a8;}.cls-37{fill:#546382;}.cls-38{fill:#4c669d;}.cls-39{fill:#405f98;}.cls-40{fill:#4e689e;}.cls-41{fill:#fcfeec;}.cls-42{fill:#fefeee;}.cls-43{fill:#435e99;}.cls-44{fill:#4962a6;}.cls-45{fill:#4e6081;}.cls-46{fill:#4269a1;}.cls-47{fill:#4b66a2;}.cls-48{fill:#f9fbfd;}.cls-49{fill:#fdfefd;}.cls-50{fill:#fdfdfd;}.cls-51{fill:#f7cc72;}.cls-52{fill:#f8cb70;}.cls-53{fill:#4b5d90;}.cls-54{fill:#f6cd6c;}.cls-55{fill:#c0d2e1;}.cls-56{fill:#f5cf72;}.cls-57{fill:#f2f5fb;}.cls-58{fill:#f9fcfd;}.cls-59{fill:#fbfcfc;}.cls-60{fill:#e2e6f1;}.cls-61{fill:#e1ab42;}.cls-62{fill:#f7cd6d;}.cls-63{fill:#455f9a;}.cls-64{fill:#b2c7de;}.cls-65{fill:#c9a467;}.cls-66{fill:#f6ce69;}.cls-67{fill:#4d5e80;}.cls-68{fill:#f8ca7a;}.cls-69{fill:#4c5e80;}.cls-70{fill:#4d5e82;}.cls-71{fill:#3e5f9d;}.cls-72{fill:#5c5f77;}.cls-73{fill:#475e8c;}.cls-74{fill:#4a5e8a;}.cls-75{fill:#b8cdf4;}.cls-76{fill:#7790cc;}.cls-77{fill:#9c7a4e;}.cls-78{fill:#c7a67c;}.cls-79{fill:#7884aa;}.cls-80{fill:#b7ceef;}.cls-81{fill:#505b7e;}.cls-82{fill:#5c5c5e;}.cls-83{fill:#5f5e55;}.cls-84{fill:#d1cfc5;}.cls-85{fill:#c6c4c5;}.cls-86{fill:#e1eaf5;}.cls-87{fill:#f6f9fb;}.cls-88{fill:#456099;}.cls-89{fill:#c4aa89;}.cls-90{fill:#7691ca;}.cls-91{fill:#436095;}.cls-92{fill:#b5cdf0;}.cls-93{fill:#f7cd6b;}.cls-94{fill:#3e6393;}.cls-95{fill:#48689e;}.cls-96{fill:#dce5f4;}.cls-97{fill:#fbfbfc;}.cls-98{fill:#f6f7f8;}.cls-99{fill:#dbe6f3;}.cls-100{fill:#7b8dc4;}.cls-101{fill:#dbe3f8;}.cls-102{fill:#4e5d80;}.cls-103{fill:#dbe8fe;}.cls-104{fill:#4d5b8b;}.cls-105{fill:#f6fdfe;}.cls-106{fill:#dae9fe;}.cls-107{fill:#4d5c88;}.cls-108{fill:#415cac;}.cls-109{fill:#4162a8;}.cls-110{fill:#495e8a;}.cls-111{fill:#dff3fe;}.cls-112{fill:#f8fdfe;}.cls-113{fill:#e2eefb;}.cls-114{fill:#44618a;}.cls-115{fill:#3e5bb7;}.cls-116{fill:#d6eafe;}.cls-117{fill:#4b5f86;}.cls-118{fill:#4c5d86;}.cls-119{fill:#f4fefe;}.cls-120{fill:#fcfdfd;}.cls-121{fill:#f7cd71;}.cls-122{fill:#eef5f8;}.cls-123{fill:#f8cc70;}.cls-124{fill:#4d5e81;}.cls-125{fill:#4d5d81;}.cls-126{fill:#e0e9f5;}.cls-127{fill:#c3c4c5;}.cls-128{fill:#4a5b93;}.cls-129{fill:#4c5e82;}.cls-130{fill:#5a5d61;}.cls-131{fill:#615c54;}.cls-132{fill:#cecbc8;}.cls-133{fill:#4658b0;}.cls-134{fill:#dce8f6;}.cls-135{fill:#3c5cb3;}.cls-136{fill:#d9e3f3;}.cls-137{fill:#dce3fe;}.cls-138{fill:#d9e3f8;}.cls-139{fill:#455d93;}.cls-140{fill:#dbe5f7;}.cls-141{fill:#eff2f9;}.cls-142{fill:#455b9b;}.cls-143{fill:#f8fbfc;}.cls-144{fill:#d1e6fe;}.cls-145{fill:#485e8f;}.cls-146{fill:#dbe6f2;}.cls-147{fill:#485e87;}.cls-148{fill:#3f5da8;}.cls-149{fill:#4c6087;}.cls-150{fill:#475f87;}.cls-151{fill:#475b97;}.cls-152{fill:#f1f4fa;}.cls-153{fill:#abbff4;}.cls-154{fill:#475c97;}.cls-155{fill:#d9e4fc;}.cls-156{fill:#485e92;}.cls-157{fill:#486088;}.cls-158{fill:#d0e7fe;}.cls-159{fill:#495d90;}.cls-160{fill:#4a5e85;}.cls-161{fill:#f7fafa;}.cls-162{fill:#91775f;}.cls-163{fill:#3561b2;}.cls-164{fill:#b5cdf8;}.cls-165{fill:#fcfcfc;}.cls-166{fill:#fcfdfb;}.cls-167{fill:#435d9d;}.cls-168{fill:#3b619c;}.cls-169{fill:#4a5f83;}.cls-170{fill:#e1f1fe;}.cls-171{fill:#455c9b;}.cls-172{fill:#3d5cb9;}.cls-173{fill:#e7fbfe;}.cls-174{fill:#dee8f3;}.cls-175{fill:#e5f4fb;}.cls-176{fill:#99a7e3;}.cls-177{fill:#4e5d81;}.cls-178{fill:#4c5a94;}.cls-179{fill:#4a5e82;}.cls-180{fill:#fbfef9;}.cls-181{fill:#ecfdfd;}.cls-182{fill:#dde4f7;}.cls-183{fill:#d4e2f7;}.cls-184{fill:#4465b1;}.cls-185{fill:#dce6f5;}.cls-186{fill:#f1d261;}.cls-187{fill:#f2d164;}.cls-188{fill:#aaaabf;}.cls-189{fill:#e3c9b3;}.cls-190{fill:#f4ce6c;}.cls-191{fill:#dce6f0;}.cls-192{fill:#3f61a4;}.cls-193{fill:#d7e8f8;}.cls-194{fill:#3f5fa2;}.cls-195{fill:#415fa2;}.cls-196{fill:#3e5fa6;}.cls-197{fill:#4162a4;}.cls-198{fill:#fefcf4;}.cls-199{fill:#4f608a;}.cls-200{fill:#4f6189;}.cls-201{fill:#4659ae;}.cls-202{fill:#dde6ee;}.cls-203{fill:#f8cf60;}.cls-204{fill:#4162a5;}.cls-205{fill:#3c5fa6;}.cls-206{fill:#4763a9;}.cls-207{fill:#dce6ef;}.cls-208{fill:#dfe6e9;}.cls-209{fill:#4a6193;}.cls-210{fill:#556b9f;}.cls-211{fill:#e2e4eb;}.cls-212{fill:#486087;}.cls-213{fill:#dbe4f4;}.cls-214{fill:#445fa0;}.cls-215{fill:#d9e4f7;}.cls-216{fill:#dee5e9;}.cls-217{fill:#d7e2f8;}.cls-218{fill:#fbfefd;}.cls-219{fill:#cae0fe;}.cls-220{fill:#aec7f5;}.cls-221{fill:#c2defd;}.cls-222{fill:#436283;}.cls-223{fill:#c8d5eb;}.cls-224{fill:#445e97;}.cls-225{fill:#c6e2fe;}.cls-226{fill:#45618b;}.cls-227{fill:#44618d;}.cls-228{fill:#cfdaec;}.cls-229{fill:#cfdffc;}.cls-230{fill:#475e89;}.cls-231{fill:#35649f;}.cls-232{fill:#4b6298;}.cls-233{fill:#4a63ad;}.cls-234{fill:#506892;}.cls-235{fill:#505a7f;}.cls-236{fill:#b0c6ea;}.cls-237{fill:#c5d7f0;}.cls-238{fill:#b1c9ed;}.cls-239{fill:#bfd4ef;}.cls-240{fill:#b5cff1;}.cls-241{fill:#b2c5ec;}.cls-242{fill:#bfd7ec;}.cls-243{fill:#57739c;}.cls-244{fill:#d7dfed;}.cls-245{fill:#cad9ec;}</style></defs><title>navigator-1</title><path class="cls-1" d="M645.3,352.44c.91-4.34,4.48-3.12,7.13-3.14,16.49-.13,33.06-1.08,49.43.31a144.27,144.27,0,0,0,25.54.07c17.23-1.52,34.7-.56,52.07-.41,10.27.09,15.72,5.48,15.92,15.83.24,11.78.57,23.59-.18,35.32-.34,5.27,1.43,5.8,5.54,5.59,3.82-.19,7.65,0,11.48,0,16.55,0,20.55,4.1,20.57,21,0,8.24.11,16.48.17,24.72a2.63,2.63,0,0,1-3,.69,3.56,3.56,0,0,1-1.1-1.18,7.56,7.56,0,0,0,1.22,1.4c3.57,5.63,7.42,8.8,13.51,2.78,1.94-1.91,4.76-1.94,7.21-.15-1.15,6.93-5.71,11.41-11,15.34a8.48,8.48,0,0,1-6.38,0c-4.25-2.22-6-7.28-10.43-9.32-2.37-3.12-2.73-6.67-2.27-10.4.41-11.25,2.83-22.58-1.51-33.59-9.3-4.14-19.06-1.34-28.58-1.78-4.68-.21-10.05-2.12-14.12,2.27-2.37,8.38-.77,16.89-1,25.33-.14,4.57,2.77,5.89,6.84,6,5.83.21,11.73-.63,17.47,1a10.21,10.21,0,0,1,3.09,1.64c2.11,1.72,6.37,1.88,5.55,5.8-.78,3.75-4.65,2.72-7.24,3.39,2.77.33,5.49.12,8.13.77a53,53,0,0,0,12.26-.25l1.34.16a6.23,6.23,0,0,1,2.17,1.81c2.45,4.5.18,6.7-3.9,8-13.2,1-26.4.4-39.59.42q-74.82.14-149.63,0c-4.38,0-8.81.46-13.11-.81-5.64-4.81-4.89-11.77-6.07-18.08,3.4-5.78,9.44-.14,13.5-3.14,11.38-1.51,22.81-.58,34.21-.67,6.26-.06,9.34-2.4,8.86-8.84-.56-7.53,1.36-15.23-1.63-22.55-4.71-5.2-11.6-.75-16.78-3.81-2.72-1.72-3.82-4.11-3-7.28a5.38,5.38,0,0,1,2.74-2.68c5.1-2.62-.29-5.22-.06-7.84-1-9.93-.37-19.87-.43-29.79-.23-3.06,2.58-7.68-3.9-7.55a3.22,3.22,0,0,1-1.83-1.61A4.78,4.78,0,0,1,645.3,352.44Z" transform="translate(-198.56 -182.02)"/><path class="cls-2" d="M327.76,541.75c-7.44-7.45-22.35-6.94-29.29.59-5.07,5.5-9.53,12.27-18.41,12.13a2.49,2.49,0,0,1-2.46.14c-1.81-3,.38-4.88,1.86-7,7.06-5.89,12.7-13.21,19.61-19.27a12.17,12.17,0,0,1,3.66-.93c3.72-.31,7.48,0,12.3-.2-4.75-4.76-3.91-13.17-12.51-13.36-5.5-.85-8.35-5.06-11.51-8.95a41.71,41.71,0,0,0-27-15.27c-4.95-.75-6.54,1-4.86,5.94,2.5,7.3,8.1,12.13,13.16,17.45,6.4,6.74,6.31,8.1-.33,15.22a28.4,28.4,0,0,1-6.5,3.69c-3.26.14-5.71-1.08-7-4.2,6.48-5.11,6.34-9.29-.16-15.09-6.66-5.94-9.58-14.55-10.66-23.59-.75-6.3,1.31-9,8.07-9.21,16.48-.48,29.93,5.62,41.36,17.09,2.4,2.4,3.7,6.09,8.69,7.27-1.34-7.48-2.69-14.39-3.78-21.34-.6-3.76-.85-7.58-1.09-11.39-.13-2,.05-5.83,1.23-5.58,11.92,2.44,6.6-17,19-14.45,7.07,1.42,14.65.26,22,.27,2.24-7.45,0-15.13,1.22-22.63,3.15-2.3,6.08-.39,9.08.41,4.18,1.76,8.6,1.77,13,1.77q66.15,0,132.29,0c12.46,0,13.1-.6,13-12.81,0-9.4.61-18.81-.5-28.15-1.89-5.72-8.65-1.82-11.44-5.76-1.43-4,.18-6.42,4.22-6.22,5.38.26,10.85-.79,16.15.82,2.84,2.53,1.78,5.94,1.81,9,.15,17.78.83,35.6-.14,53.33-.49,8.94,2.59,11.32,10.41,10.58,2.39,2.18,5.07,1.31,7.73.72a21.63,21.63,0,0,1,7,.23c2.79.39,6.67,0,7,3.79.38,4.59-3.66,4.41-6.83,4.74-2.48.7-2.45,3.63-4.29,4.93-4.72,1.86-5.7-5.71-10.33-4.08-2.05.43-4.25,0-6.11,1,2,1,3.89-.21,5.83-.16a7.72,7.72,0,0,1,2.65.44c3.78,2.35,5.58,4.79.39,7.59-4.36,1.07-8.8.66-13.2.66q-98.05.06-196.1.06c-3.78,0-7.67-.66-11.28,1-2.52,1.6-2.91,4.09-2.78,6.79,1.34,21.54,11.66,39.39,23.33,56.66,1.95,1.71,4.93,1.58,6.66,3.69a4,4,0,0,1-.1,3.76c-1.66,1.61-3.76,1.81-5.91,1.82C332.51,545.89,330.29,543.5,327.76,541.75Z" transform="translate(-198.56 -182.02)"/><path class="cls-3" d="M1016.47,409.39l4.29,3.45c4.24,7,1.77,14.73,1.83,22.08,0,6.79,2.19,9.26,8.79,7.26a5.54,5.54,0,0,1,3.78,1.67c1.86,2.54,5.14,4.66,2.55,8.53a7.18,7.18,0,0,1-6.66.51c-4.86-4.19-9.22-.79-13.7.95-11.71,1.46-23.45.63-35.16.69-29.32.13-58.64.06-88,0-4.38,0-8.81.37-13.1-1-5.84-3.47-1.36-5.93.85-8.62,1.06-1,1.47-2.75,3.26-3,12.85.08,25.71.06,38.57.18,6.21.06,9.45-2.19,8.94-8.7-.43-5.43,1.3-11.19-2.43-16.1-4.36-4.05-10.15-.95-14.89-2.95-3.18-2.35-6.38-2.52-9.61-.05-5.84,2-12.13-.48-17.9,1.91a8.34,8.34,0,0,0-2.45,2.89c-2.5,8.29,1.62,17.37-3.12,25.35a3,3,0,0,1-4,.31c-3.32-4.93-1.54-10.51-2-15.8-.27-3.09.56-6.29-1-9.19-1.68-1.64-3-1.23-4,.76-2.91,6.06-.58,18.82,4.32,23.85,1.35,5.94-4.08,6-7.06,8.19a5.28,5.28,0,0,1-3.81-.26c-1-3.26-2.94-6.16-3.75-9.5-.06-5.85-.18-11.7-.18-17.54,0-14.17,4.88-19.12,19.39-19.24,6.12-.05,12.25.75,18.36-.37,1.07-11.94.16-23.91.51-35.85,2.85-3.83,4.48-.28,5.78,1.32a12.74,12.74,0,0,1,2.1,11.58c-1.67,6.22-.55,12,1.19,17.88.72.73,1.53,2.08,2.56,1.36,1.49-1,.78-2.94.86-4.51-.48-12,.35-24.06-.54-36-2.83-4.31-9-9,1.2-12h54.78c1.84,1.93,6.65,1,5.86,5.23s-4.77,3.77-7.87,3.85q-16.69.38-33.4,0c-5.84-.13-8.54,1.5-8.24,7.93.51,10.82.16,21.67.15,32.51,0,4.37,1.15,7.71,6.19,7.71,13.42,0,26.9,1.18,40.22-1.63a10.8,10.8,0,0,1,2.68-1c6.12-.24,11.11.72,9.22,8.84-4.13,4.25-10.52.23-14.76,4.05-1.16,1.47-1,3.2-1,4.91.1,20.16.1,20.15,19.91,20.17,7.61,0,15.23-.12,22.83.09a9.37,9.37,0,0,0,3.74-.61c3.12-6.67,1.79-13.47.6-20.26a11.72,11.72,0,0,0-3.83-4.92c-4.72-2.07-9.68-.69-14.5-1.08-3.65-.29-7.56.61-10.58-2.44-1-5.07,2.61-5.2,5.91-5.2C999,407.61,1007.86,406.76,1016.47,409.39Z" transform="translate(-198.56 -182.02)"/><path class="cls-4" d="M1054,515.49l-2.26,3.42c-2.69,1.93-3.82,4.83-4.85,7.8a.87.87,0,0,1-.6,1c-3.12,3-7.86,4.8-7.75,10.25.61,1,0,1.64-.74,2.18-2.25,4.3-5.27,7.8-10,9.51a5.72,5.72,0,0,0-3.78,3.47,8.83,8.83,0,0,1-3.63,2.52,26.63,26.63,0,0,1-4.28.53c-1.71.25-1.66.91-.59,1.95l-2.18,1.56c-1.58.78-3.22.52-4.87.31a8.31,8.31,0,0,1-4.5-1.94c-.84-4.55,3.39-5.5,5.53-7.86-5.62-2.47-12,1-17.41-2.37-1.59-.47.65-2.92-.9-2.62-4.82,1-10.13,0-14.38,3.39a21.55,21.55,0,0,1-11.81.18c-3.36-2.56-6.76-2.25-10.2-.08a10.66,10.66,0,0,1-7.3-1.12c-3.58-1.94-7.47-1.43-11.26-1.43q-283.9,0-567.81,0c-3.79,0-7.7-.52-11.2,1.58a15,15,0,0,1-10.65,1.13c-4.49-2.68-6.31-5.49.65-6.61,3.48-.55,4.84-4.22,8.27-4.3a94.67,94.67,0,0,1,12.37-.35q305.94,0,611.9,0c3.77,0,7.64-.74,11.19.69-2.14-2.3-5.37-2-7.65-3.65-5.59-2.93-11.11-6-16-10-.64-.46-1.24-1-1.85-1.45-4.53-2.66-7.14-7.18-10.57-10.92-3.93-4.93-7.48-10.05-8.14-16.59,1.19-4.89,3.09-7.63,7.61-2.54,13.71,19.91,31.79,32.8,55.94,38,12.47,2.69,21.83,1.17,29.21-9.37,2.23-1.22,4.52-2.41,4.24-5.58.73-2.85,1.81-5.44,4.74-6.74C1052.35,509.68,1053.47,512.32,1054,515.49Z" transform="translate(-198.56 -182.02)"/><path class="cls-5" d="M520.24,379.16c-5.68.48-11.35,1.28-17,1.32-3.64,0-2.34,2.37-2.72,4-3.62,3.58-8.26,2.48-12.54,2.49-40.21.09-80.43,0-120.65.09-3.72,0-7.73-.93-10.8,2.25-3,4.91-1.38,10.34-1.78,15.52s.94,10.64-2.33,15.4c-2.67,1.71-5.28,1.81-7.79-.31-.62-12.39-1.25-24.78.36-37.14l.14-1.77c.47-.34,1-.64,1.44-1,3.38-2.48,9.13.46,11-3.32,2-4,.65-9.13.59-13.76-.09-6.09.59-12.17,0-18.25-10.49-5.76-6.41-15.51-6.61-24.09h.13a5.15,5.15,0,0,1,3.93-.14,5.81,5.81,0,0,1,1.81,3.37c.7,3.05-.54,6.53,2.07,9.15a13.5,13.5,0,0,0,4.2,3c46.56-.91,93,2.44,139.57,1.49,1.15-.53-.06-2.23.29-1.1.11.35,0,.59-.34.61-19.52,1.36-39.06.83-58.59.24-.41,0-.75-.79-1-1.31,2.69-4.4,7.21-3.32,11.12-3.39,14.12-.22,28.25.08,42.36-.22,2.39-.05,7.07,2,6.32-3.79-3.19-2.42-6.85-1.48-10.29-1.52-24.67-.28-49.35.39-74-.35-3.35-.48-5.08-3.22-7.28-5.3a1.82,1.82,0,0,1,.17-2.22c1.16-4.75-.09-10,3.26-14.29,3.24-1.17,5.25.48,6.88,3,1.42,3,.45,6.66,2.76,9.36,6.45,2.75,13.2,1.24,19.81,1.43a4.38,4.38,0,0,1,1.17-2,7.1,7.1,0,0,1,2.35-.87,5.84,5.84,0,0,1,4.77,1.64l1.64,1.81c13.92,1.94,27.91.29,41.86.9,6.07.26,12.22-1,18.23.78l0-.08a58.43,58.43,0,0,1,0,21.46c-5.29,1.59-7.64,4.82-6.66,10.57a31.36,31.36,0,0,1,0,9.67C506.58,372.26,508.39,379.32,520.24,379.16Z" transform="translate(-198.56 -182.02)"/><path class="cls-6" d="M401.83,583.26,236,583.14c-2.65,0-5.3,0-7.94-.17-1.84-.14-3.47-1-3.57-3.16-.11-2.36,1-4,3.45-4.22,2.64-.19,5.29-.15,7.94-.16l135-.21a21.94,21.94,0,0,1,14.9-5.76c18.88,4.27,38.06,3.11,57.17,3.11q244.29,0,488.59.06c5.8,0,11.83-1.09,17.31,2a2.18,2.18,0,0,1,.38,3.07c-4.83,3.19-10.29,1.94-15.47,1.94q-251.6.11-503.2.07c-4.7,0-9.41-.29-14.08.4-1.9.57-3.45,1.92-5.31,2.6C408.1,583.88,405,583.31,401.83,583.26Z" transform="translate(-198.56 -182.02)"/><path class="cls-7" d="M421.05,308.8c-1.29-2.25-3.73-2.82-5.78-4,.83-3.73,3.79-5.7,6.38-8.06s7.63-1.58,7.62-6.21a155.72,155.72,0,0,0-1.18-20.95c-.48-3.53-4.34-2.07-6.71-2.08-22.52-.15-45-.15-67.56-.19.3-2.4,2.19-1.91,3.72-2.05q33.85,0,67.69,0-35.07-.06-70.16,0c-3.16.11-3.95-1.8-3.9-4.49.4-22.44-.85-44.89.68-67.32l-.07.09c22.83-1.58,45.69-.2,68.53-.76,3.05-.08,6.45,1.42,9.17-1.3,0-2.06,0-4.12.13-6.17a3.36,3.36,0,0,1,3.48-3.27,3.47,3.47,0,0,1,3.58,3.2,53.27,53.27,0,0,1,.25,7q0,46.35.07,92.7c0,5.49-.45,9.71,7.29,12.27,8,2.65,10.09,11.53,8.73,20.18h-5.49c-2.88-2.22-1.4-6.62-4.41-8.78a26.44,26.44,0,0,1-5.15-5.82,9.71,9.71,0,0,0-9.42,0C426.43,305.28,425,308.58,421.05,308.8Z" transform="translate(-198.56 -182.02)"/><path class="cls-8" d="M410.36,582.45l1.76-3.45c3.36-1.67,6.95-.81,10.42-.81q258.26-.08,516.5-.09c3.46,0,7.06.91,10.4-.87,0-.46,0-.92,0-1.38,4.11-4.18,9.13-4.61,14.52-3.55,3.51,3.71,7.49,4.64,12.68,3.64,6.24-1.2,12.62-1,15.25,6.76l-36.5,0c-3.13,1.22-6.4.64-9.61.64q-263,0-525.94,0C416.69,583.35,413.37,584.26,410.36,582.45Z" transform="translate(-198.56 -182.02)"/><path class="cls-9" d="M645.3,352.44l.15,5.7c.42,1.49-.4,2.47-1.39,3.38-6,8.29-3.79,17.07-1.53,25.85a5.89,5.89,0,0,1,.39,3.56c-.85,2.24-2.95,4.39-.53,6.89.83,1.17,1.6,2.37,2.5,3.48,1.27,1.69,3.47,2.61,4.08,4.86a10.85,10.85,0,0,0,1.77,6.64c-5.69,4.46-12.35,1.89-18.56,2.47-3.18.3-6.41.07-9.6.06-2.79.06-5.62-.25-8.29.89-1.59.66-3.35,1-4.39,2.61-3.23,4.79-1,27.4,3.19,32,.23.35.45.7.66,1.06,1.63,5.73,4.54,11.23,3.4,17.5-9.71,4.78-19.89,2-29.91,1.85-10.28-6.83-10.87-12.62-2-19.24l12.18-.37c2.5-8.84.5-17.87,1.15-26.79.26-3.46-.67-7,.69-10.39,3.08-6.41,8.58-8.28,15.22-8.6,6.93-.33,16.16,3.25,20.1-1.52,3.27-3.95.51-12.86.48-19.57,0-7-.41-14.08.11-21.07C635.66,357.75,637.05,351.79,645.3,352.44Z" transform="translate(-198.56 -182.02)"/><path class="cls-10" d="M585.29,452c-5.38,5.81-5,11.61,0,17.4-2.77,2.94-6.42,2.43-9.86,2.32-9.34-.27-18.67.47-28,.12-3.43-.13-7.1.51-9.85-2.46-.11-3.53-3.22-4-5.45-5.43-.8-1.2-.91-2.34.26-3.38,6.7-4.57,6.23,5.05,10.5,5.3,1.62-1.68,3.54-1.66,5.58-1-2.49-1.22-6-1.78-3.83-6a23.08,23.08,0,0,1,4.27.34c2,.55,3.7.22,3.8-2,.08-1.76-1.8-2.15-3.22-1.93-3.4.53-6.76-1.95-10.14-.08-1.9-2.59-.31-3.87,1.83-4.94a10.7,10.7,0,0,1,2.37-.47c.72-.08,1.47-.09,2.2-.12a3.44,3.44,0,0,0,1.76-1.05c.47-4.39-.31-8.77.29-13.1.73-5.3,3.25-8,8.92-6,4.24,4.4,1.7,10.09,3.24,15-2-5.92,3.88-13.17-3.55-18.12-2.64-.6-5.39-.93-7.15-3.38-.88-4.27,1.62-6.49,4.94-8.24,4.55-1.14,9.08-1.62,13.45.72,4.56,5.07.37,12.28,4.28,17.52,1.38,2.74.84,5.71,1,8.1.71-5-1.23-10.44,0-15.93a11.19,11.19,0,0,1,1-2.41c2.24-2.15,2-6.15,5.42-7.41,1.59-.07,2.88.32,3.26,2.13.7,11.35-1.29,22.78,1.07,34.08A3.82,3.82,0,0,1,585.29,452Z" transform="translate(-198.56 -182.02)"/><path class="cls-11" d="M410.36,582.45l521.19.09c8,0,15.9.12,23.85.19-6.53,2.52-13.38,1.52-20.07,1.53q-258.42.13-516.83,0c-5.56,0-11.19.53-16.67-1Z" transform="translate(-198.56 -182.02)"/><path class="cls-12" d="M997.21,575.73l126.24-.29c2.68,0,5.8-.21,6.08,3.42.34,4.4-3.25,4.25-6.15,4.24q-62.22-.15-124.46-.41C997.14,580.67,995.94,578.5,997.21,575.73Z" transform="translate(-198.56 -182.02)"/><path class="cls-13" d="M970.61,405.72c.5,1.58,1.74,3.44-1.51,3.44-12.82,0-25.64,0-38.45.2-7.08.11-9.86-2.83-9.65-10.1.38-12.6.32-25.25-.32-37.84-.31-6.16,3.5-5.06,6.75-5.09,12.33-.13,24.66,0,37-.12,2.42,0,6.11,1.52,7-1.62,1.27-4.31-4.41-.67-5-3.45-.1-.48.38-1.08.59-1.63,10.6,1.25,13.93,5,13.91,15.58-2.11.74-3-1.33-4.59-2,.28,8.5.34,17,0,25.43-.19,5.3,1,9.77,4.56,13.64,0,4.26,2.87,4.2,5.94,4.16,7-.08,13.92-.19,20.87,0,3.11.09,6.42.25,8.7,3-8.31,0-16.62-.09-24.93,0-2.75,0-6.09-.83-6.74,3.44a2.51,2.51,0,0,1-3.55,0c.42-8.37-5.71-6.82-10.66-7.05-1.35-2.85-.38-5.89-.79-8.82-.06-8.81-.27-17.62,0-26.41.21-7.23-3-10-10-9.82q-12.76.38-25.53,0c-6.54-.2-8.85,2.75-8.71,9,.22,10,0,19.95.19,29.92.74,4.18,4,3.55,6.87,3.57,9.08.06,18.15-.07,27.23.07C963.57,403.28,967.55,402.64,970.61,405.72Z" transform="translate(-198.56 -182.02)"/><path class="cls-14" d="M1037.82,451.49l-3.57-6.88c-3.42-7.87-1.18-16.15-1.66-24.23-.34-5.54,0-11.1-.08-16.65,0-4.74-.47-10,4.77-12.17,5.43-2.25,10.76-1.26,14.83,3.58l1.16,1.9c-1,15.14-.24,30.29-.42,45.44,0,1.13.78,1.39,1.46,1.85a.9.9,0,0,1,1.19.16c2.36,2.59,4.73,2.5,7.12,0a11.33,11.33,0,0,1,7,.39c2.5,4.21,1.61,7.2-3.16,8.81a19.5,19.5,0,0,1-3.23.47C1054.73,453.57,1045.81,456.9,1037.82,451.49Z" transform="translate(-198.56 -182.02)"/><path class="cls-15" d="M543,451.71c-2.3.08-3.53,1.23-3.59,3.57-2.67-.38-6.28,1.27-7.06-3.24,4.46.13,4.91-2.62,4.86-6.24q-.2-18.24,0-36.48c0-2.78-1.68-6.84,3.52-7.32,2.52-.63,5.06.34,7.58-.11a.73.73,0,0,1,1.11.14c8.48-2,17,2.26,25.44,0v0c1.3,2,4.23,2.71,4.64,5.52a4.75,4.75,0,0,1-.86,3.63c-1.61,1-3.36.64-5.09.56-1.31,0-2.62-.05-3.93-.05-6.52,0-13-.06-19.51.09-.9.26-1.92.43-1.28,1.82,1.53,1.07,3.6,1.16,4.7,2.85-1,2.4-3.8,3.95-3.55,7,.83,1.11.08,1.69-.75,2.23a24.24,24.24,0,0,1-2.69.14,1.81,1.81,0,0,0-1.34,1c-.73,1.5-1,3.17-1.86,4.59-2.66,3.85-1.93,7.79-.34,11.76C544,446.06,545.33,448.9,543,451.71Z" transform="translate(-198.56 -182.02)"/><path class="cls-16" d="M1066.05,451.77c4.63-.5,3.31-4.09,3.57-6.87,3.36.32,3.26,2.94,3.14,5.19-1.2,23.24-5.74,45.54-18.74,65.4l-5.1-5.41c-2.34-3.34.27-6,1.42-8.69,2.91-6.86,6.09-13.6,7.91-20.87,1.19-6.24,2-12.56,4.25-18.56C1064.18,458.74,1063.25,454.6,1066.05,451.77Z" transform="translate(-198.56 -182.02)"/><path class="cls-17" d="M997.21,575.73a10.71,10.71,0,0,1,1.71,7h-7c-4.08-4.61-9.06-5.32-15-4.51-4.26.58-10.71,4.29-11.57-4.6-.31-2.28,1.39-3.06,3-3.56a241,241,0,0,0,31.32-12.6,4,4,0,0,1,4.12.16l5.78.22c2.81,4.34-2.86,4.26-3.54,6.78a.89.89,0,0,1-1.08.51,11.93,11.93,0,0,0-6,3.31L987.06,575Z" transform="translate(-198.56 -182.02)"/><path class="cls-18" d="M384.28,571.73c-5-.84-8.25,5-13.43,3.49-13-7.59-26.75-14.21-36.47-26.37a1.46,1.46,0,0,1,.07-2.27c1.95-1.35,4.14-1.1,6.32-1,1.73.25,2.91,1.52,4.32,2.36,3.56.89,6.21,3.23,8.88,5.54a5,5,0,0,1,.89,1.94c-.26,1.76.67,2,2.11,1.58,5.13,1.09,9.36,4.07,13.92,6.37C375.13,566.55,381.77,565.82,384.28,571.73Z" transform="translate(-198.56 -182.02)"/><path class="cls-19" d="M861.05,442.89c3.86,1.77,8.21,3.33,3.55,8.6-4.05,3.31-9,3.56-13.85,3.89-5-1.81-7.54,3.24-11.35,4.61-10,3.6-8.69-3.28-10.15-8.25l3.72-.07c6,.25,11.89,1,15.95-5.63C851.44,441.94,857.35,445.54,861.05,442.89Z" transform="translate(-198.56 -182.02)"/><path class="cls-3" d="M981,402.2c-5.46.21-7.15-2.29-6.89-7.76.51-10.75.23-21.54.35-32.3,0-.79.64-1.57,1.25-3,2.84,1.21,2.43,5.27,5.3,5.93Q981,383.65,981,402.2Z" transform="translate(-198.56 -182.02)"/><path class="cls-20" d="M277.78,554.25l2.28.22-3.93,3.37c-4,1.61-8.77.34-12.49,3.15-4.8.08-9.78,1.85-14.21-1.52-2-3.9.27-8.27-1.37-12.21l1.6-3.62c1.76-2.11,2.3-4.78,3.32-7.22l2-3.33c3.28-.66,4.78,1.3,5.84,3.92a12.84,12.84,0,0,1-1,5.14c-3,9.6-3,9.6,7.25,9.73C270.8,552,274.68,551.39,277.78,554.25Z" transform="translate(-198.56 -182.02)"/><path class="cls-21" d="M912.28,349.52c-5,5.19-5,5.19,1.78,8.63-4.31,3.29-4.32,8.07-4.45,12.8-.26,9.7.48,19.41-.43,29.11a7.21,7.21,0,0,1-2.24,4c-2.53-6.72-4.58-13.3-2.26-20.78,1.68-5.44.83-11-4.65-14.58-2.09-2.67,0-6-1.49-8.81C900.48,352.91,905,349.34,912.28,349.52Z" transform="translate(-198.56 -182.02)"/><path class="cls-22" d="M1032.33,442.59c-6.76,3.31-10.23,2.16-10.1-6.33.11-7.8,1.38-15.77-1.47-23.42,5.35,4.16,2.6,9.92,3.19,15.09.5,4.38-3.5,12.11,3.26,12.37s3.44-7.55,3.26-11.43c-.6-12.47,3-25.26-2.4-37.42-.86-1.92-.18-4.06,1.86-3.93,3.23.22,7.64-4.64,9.65,1.84-5.22,3.74-6.41,8.77-6.39,15.1C1033.21,417.16,1034.62,429.93,1032.33,442.59Z" transform="translate(-198.56 -182.02)"/><path class="cls-23" d="M1020.5,554.4c1-.77,2-1.55,3.07-2.33a6.66,6.66,0,0,1,3.15-3.24l11.1-8.65c.51,1,1.3,2.79,1.5,2.73,9.89-3.07,4.62,6.82,7.79,9.64.91.81-2.88,1.64-4.66.83-4.55-2-9.19-8.13-11.32,3-.67,3.47-8.44,0-12.88,1C1017.76,555.44,1019.27,555,1020.5,554.4Z" transform="translate(-198.56 -182.02)"/><path class="cls-24" d="M1153.2,583.34c-3.8-.21-7.6-.35-11.4-.63-2.15-.15-4.21-.75-4-3.53a3.68,3.68,0,0,1,4-3.69c7.33,0,14.65,0,22,0,2.43,0,4.08,1.12,4.35,3.38.35,3.06-2,4.06-4.46,4.19-3.5.18-7,0-10.54,0A2.81,2.81,0,0,0,1153.2,583.34Z" transform="translate(-198.56 -182.02)"/><path class="cls-25" d="M429.48,191.46c-1.54,3.23-4.54,2.18-7,2.19-23.56,0-47.13-.08-70.69-.13,2.59-3,6-1.54,9.08-1.57C383.74,191.68,406.61,191.6,429.48,191.46Z" transform="translate(-198.56 -182.02)"/><path class="cls-26" d="M355.49,265.92l-1.67,1.43c-3.73-.37-3.65-3.26-3.65-5.85q-.06-32.62.09-65.26c0-.94,1-1.87,1.59-2.81,0,20.8,0,41.6.24,62.4,0,3.11-1.89,7.42,3.43,8.6.61.34.81.68.6,1S355.7,265.92,355.49,265.92Z" transform="translate(-198.56 -182.02)"/><path class="cls-27" d="M1032.33,442.59c-.1-14.29-.25-28.58-.28-42.87,0-5.18,2.12-9,7.53-10.36,4.6,1,10.56-.93,12.53,5.78-13-6.6-17.82-3.65-17.83,11l0,38.48Z" transform="translate(-198.56 -182.02)"/><path class="cls-28" d="M345,382.83q.15,18.54.31,37.08c2,3,2.4,6,0,9-1.59,7.53,2.09,15.55-2.09,22.85.18-19.87.31-39.75.6-59.61C343.81,389,342.68,385.68,345,382.83Z" transform="translate(-198.56 -182.02)"/><path class="cls-29" d="M206.86,583.19c-3.17-.55-8.14,1.37-8.29-3.81-.16-5.36,4.81-3.88,8-3.88s8.05-1.34,7.86,4.11C214.27,584.33,209.8,582.75,206.86,583.19Z" transform="translate(-198.56 -182.02)"/><path class="cls-30" d="M355.56,321l-3.85-.38c3.56-3.19,7.86-1.42,11.76-1.48,16.18-.23,32.36-.06,48.54,0,0,.61.08,1.21.11,1.81-1.06.5.48.38-.65.56C392.81,324.41,374.16,325.26,355.56,321Z" transform="translate(-198.56 -182.02)"/><path class="cls-30" d="M514.74,320.9c-17.29,0-34.58.07-51.87,0-2.79,0-5.94,1.09-8.22-1.67,18-.05,35.9-.14,53.85-.08C510.63,319.15,513.33,318,514.74,320.9Z" transform="translate(-198.56 -182.02)"/><path class="cls-31" d="M578.28,411.09c0-1.19,0-2.38,0-3.57.77-1.73,1.58-3.42,3.71-3.84,3,11.52.56,23.25,1.26,34.86.26,4.38.29,8.78.42,13.18-4.18-7.07-1.1-14.77-1.86-22.14-.44-4.35-.13-8.77-.16-13.15C580.32,414.78,578.35,413.54,578.28,411.09Z" transform="translate(-198.56 -182.02)"/><path class="cls-28" d="M359,343.82c0,10.2,0,20.39.16,30.58,0,3.3-1.39,4.72-4.62,5s-6.29,1.07-9.44,1.63a2.86,2.86,0,0,1,3.34-3.09c9.92,1.61,9.68-4.67,9.36-11.44-.35-7.52-.37-15.06-.53-22.59A1,1,0,0,1,359,343.82Z" transform="translate(-198.56 -182.02)"/><path class="cls-32" d="M1054.31,444.33c-.64-.54-1.82-1.07-1.83-1.62-.32-15.23-1.85-30.49.79-45.67Q1053.78,420.68,1054.31,444.33Z" transform="translate(-198.56 -182.02)"/><path class="cls-33" d="M898.54,359.87c2.44,2.61,1,5.87,1.49,8.81-.89,12.34,1.49,24.8-1.41,37.06C897.82,390.45,897.92,375.16,898.54,359.87Z" transform="translate(-198.56 -182.02)"/><path class="cls-31" d="M574.86,402c-8.47,5.49-17,.11-25.44,0A74.18,74.18,0,0,1,574.86,402Z" transform="translate(-198.56 -182.02)"/><path class="cls-34" d="M599.31,414.46c.06,10.28.14,20.57.15,30.86,0,2.28.53,4.8-2,6.32.06-9.65,0-19.3.24-28.95C597.77,419.91,596.65,416.78,599.31,414.46Z" transform="translate(-198.56 -182.02)"/><path class="cls-35" d="M359,343.82c-.58,0-1.16.06-1.73.12-5.27.55-7.84-1.73-7.14-7.08s-1.73-11.05,1.45-16.2a5.9,5.9,0,0,1,.89,4.93C350.51,333.09,352.61,339.25,359,343.82Z" transform="translate(-198.56 -182.02)"/><path class="cls-36" d="M260.78,536.82,255,533.09l3.47-5.33,6.53,3.49C266.61,535.39,263.91,536.26,260.78,536.82Z" transform="translate(-198.56 -182.02)"/><path class="cls-37" d="M514.66,342.28q0-10.72,0-21.46A27.91,27.91,0,0,1,514.66,342.28Z" transform="translate(-198.56 -182.02)"/><path class="cls-16" d="M1038.56,538c-2.44-7.21,3.25-8.28,7.75-10.25Q1042.43,532.87,1038.56,538Z" transform="translate(-198.56 -182.02)"/><path class="cls-38" d="M263.64,561c2.9-6.07,8.35-2,12.49-3.15C272.34,560.39,268,560.77,263.64,561Z" transform="translate(-198.56 -182.02)"/><path class="cls-39" d="M582,403.68a6.62,6.62,0,0,1-3.71,3.84c-1.17-1.81-4-2.61-3.44-5.49C577.21,402.72,580.12,401,582,403.68Z" transform="translate(-198.56 -182.02)"/><path class="cls-40" d="M334.4,547.16c0,.56,0,1.13,0,1.69-3.09-1.54-5-4.18-6.62-7.1,3-2.18,4,2.78,6.59,1.91A2.38,2.38,0,0,1,334.4,547.16Z" transform="translate(-198.56 -182.02)"/><path class="cls-41" d="M870.67,397c-.22,1.54-1.44,1.59-2.57,1.59s-2.5-.09-2.48-1.63,1.38-1.59,2.52-1.58S870.49,395.37,870.67,397Z" transform="translate(-198.56 -182.02)"/><path class="cls-42" d="M974.18,342c-1.13-.09-2.5-.09-2.48-1.64s1.39-1.59,2.52-1.59,2.5.09,2.49,1.63S975.32,342,974.18,342Z" transform="translate(-198.56 -182.02)"/><path class="cls-43" d="M1062.62,444.51c-2.4,5.48-4.77,5.63-7.12,0Z" transform="translate(-198.56 -182.02)"/><path class="cls-44" d="M1006,564.59l3.54-6.78,3.85,1.91A16.59,16.59,0,0,1,1006,564.59Z" transform="translate(-198.56 -182.02)"/><path class="cls-45" d="M248.06,547.26c2.79,3.81,1,8.14,1.37,12.21C245.65,555.78,248.4,551.34,248.06,547.26Z" transform="translate(-198.56 -182.02)"/><path class="cls-44" d="M1020.5,554.4l-2.25,3-2.68.78C1014,552.67,1018.17,554.76,1020.5,554.4Z" transform="translate(-198.56 -182.02)"/><path class="cls-31" d="M548.31,401.89c-2.49,2.37-5,1.35-7.58.11A8.07,8.07,0,0,1,548.31,401.89Z" transform="translate(-198.56 -182.02)"/><path class="cls-16" d="M1046.91,526.71c.06-3.57.54-6.87,4.85-7.8C1051.26,522.2,1049.16,524.5,1046.91,526.71Z" transform="translate(-198.56 -182.02)"/><path class="cls-46" d="M999,568.41c.37-4,3.24-3.54,6-3.31A9.94,9.94,0,0,1,999,568.41Z" transform="translate(-198.56 -182.02)"/><path class="cls-47" d="M253,536.42c.28,3-.18,5.74-3.32,7.22A11.85,11.85,0,0,1,253,536.42Z" transform="translate(-198.56 -182.02)"/><path class="cls-48" d="M850.75,455.38c3.49-5.31,9.15-2.9,13.85-3.89l3.58,0c3.54-1.34,7.07-2.71,10.61,0h141.36a10,10,0,0,1,10.58,0h7.09l26.33.41c1.61,2.05,1.23,4.11.06,6.18-3,3.59-7.27,3.29-11.31,3.42-9.91.32-19.83-.31-29.75-.16-50.62.05-101.24.66-151.86.22-8.36-.07-15,2-19.62,9.23-5.15,8.07-12.55,10.12-21.89,10.11q-253.41-.33-506.82-.16c-1.54,0-3.09,0-4.63-.06-2.81-.22-5.74.65-8.47-.75a15.81,15.81,0,0,1-.08-8.36c3.15-2.44,6.81-1.18,10.2-1.18q247.15-.12,494.31-.09c8.35,0,16.71-.48,25.05-1Z" transform="translate(-198.56 -182.02)"/><path class="cls-49" d="M737.33,358.07c13.76-.11,27.52-.14,41.27-.37,5.89-.09,8.49,2.3,8.3,8.39-.38,11.4-.32,22.82-.45,34.23-2.19,2.37-5.06,2.76-8.05,2.77-11.13.05-22.27,0-33.4,0-6.42,0-9.8-2.6-9.46-9.51.41-8.48-1.09-16.93-.73-25.44C735,364.56,735.41,361.16,737.33,358.07Z" transform="translate(-198.56 -182.02)"/><path class="cls-50" d="M801,452c-7.06-.1-14.13-.5-21.17-.19-5,.23-6.66-1.48-6.56-6.48.21-10-.16-20-.29-30,.88-2.3,2.92-1.64,4.52-1.56,14.84.73,29.77-1.67,44.56,1.19,3.55,12.33,3,24.68.15,37C815.11,456.24,808,454.23,801,452Z" transform="translate(-198.56 -182.02)"/><path class="cls-49" d="M670.1,414.75c4.6,11.28,1.27,23,1.72,34.5.16,3.86-4,2.38-6.33,2.42-13.76.24-27.52.26-41.28.36a3.49,3.49,0,0,1-3.53-3.27c-1-11.48-3.08-23,1.44-34.29C638.12,413.47,654.11,413,670.1,414.75Z" transform="translate(-198.56 -182.02)"/><path class="cls-51" d="M698.69,451.63q0-15.67,0-31.34c1-.58-.48-.34.64-.58,16.24-3.52,32.46-4.82,48.53,1,2.84,3.62,1.66,7.76,1.51,11.76-5.76,5.78-5.92-.41-7.54-3.55-.62,1.83.45,3.4,1,4.88,3.33,8.46,2.86,9.13-7.12,9.08a7.47,7.47,0,0,1-2-.95c-1,.23-.7-3.72-2.51-.68a11.7,11.7,0,0,1-1.08,1.81c-1.64,7.88-9,6.09-14,8.43L702,452C700.78,452.68,699.65,452.85,698.69,451.63Z" transform="translate(-198.56 -182.02)"/><path class="cls-52" d="M659.87,377.51v-7.08c1.92-3.64,4.76-5.8,9-5.84,7.31-.06,14.63-.55,21.91.33,2.28.27,4.91,1.06,4.52,4.21-.31,2.57-2.62,2.87-4.71,3-4.38.22-8.77,0-13.16.1,4.35,0,8.7.05,13,0,2.32,0,4.61.09,6-2.5,3.82-6.91,8.18-4.88,12.57-.54a5.16,5.16,0,0,1,1,3.74c-.81,3.3-4,4.46-6.23,6.79,2,1.36,5.35-.7,6.45,2.54a8.38,8.38,0,0,1-.86,6.89,12.14,12.14,0,0,1-8.94,4.85c-13.55.75-27.15-.23-40.68,1.23,0-3.54,0-7.07,0-10.61A5.08,5.08,0,0,0,659.87,377.51Z" transform="translate(-198.56 -182.02)"/><path class="cls-53" d="M839.34,469.34c-2.43,4-6.38,2.24-9.61,2.24q-250.71.14-501.42.08c-6.18,0-12.36-.06-18.53-.09,2.57-3.78,6.47-2.06,9.73-2.07q109-.18,218.1-.11l47.72,0H824c2.94-1.94,5.88-2.39,8.82,0Z" transform="translate(-198.56 -182.02)"/><path class="cls-54" d="M659.85,395.18c4.89-4.13,10.79-3.21,16.55-3.63,10.84-.8,22.21,3,32.45-3.43,3,4.26,2.6,8.6.31,13-16.47,2.91-32.92,4-49.31-.54Z" transform="translate(-198.56 -182.02)"/><path class="cls-55" d="M737.33,358.07c0,11.76.14,23.52-.14,35.28-.12,5.14,1.32,7.44,6.93,7.3,14.1-.37,28.22-.25,42.33-.33.3,5.1-3.14,5.49-6.9,5.48l-43.65-.14c-.42-15.26-5.72-30.46-.64-45.8Z" transform="translate(-198.56 -182.02)"/><path class="cls-9" d="M622.46,414.64q-.19,16.55-.4,33.09c0,1.76.11,3.53,2.15,4.3-.44,1.88-1.29,3.64-3.28,1.62-2.16-2.2-4.62-1.86-7.18-1.76l-.26-.27c-4.71-11-2.61-22.27-1.53-33.51,1.54-3.39,4.8-3.26,7.75-3.76A2.61,2.61,0,0,1,622.46,414.64Z" transform="translate(-198.56 -182.02)"/><path class="cls-56" d="M708.82,370.44c-4.4-2.24-9.33-7.19-11.39,2.34-.11.49-1.49,1-2.29,1-9.11.07-18.22.05-27.33-1.11,8.39-3.88,17.48-.81,25.85-4.3-11.33-.35-22.8-4.57-33.8,2.06l0-6.75c.79-.87,1.68-1.91,2.8-2,15-1,30-2.72,44.84,1.1,1,1.17,2.68,1.43,3.62,2.68A4.7,4.7,0,0,1,708.82,370.44Z" transform="translate(-198.56 -182.02)"/><path class="cls-57" d="M720,398.63q-.13-16.62-.26-33.23c0-4.79,1.46-8.06,7.08-7.43,3.16,5.11,2.28,10.81,2.37,16.36.11,7.36-1,14.67-.79,22,.07,2.49-.62,4.87-3.21,5.73C722.22,403.09,721.05,400.81,720,398.63Z" transform="translate(-198.56 -182.02)"/><path class="cls-58" d="M747.7,422c-16.22-3.62-32.66-.94-49-1.67,0-1.82-.09-3.64-.13-5.46,16.39-1.41,32.77-2.36,49.11.51q1.11,2.39,2.23,4.75a1.63,1.63,0,0,1,0,2.09A2,2,0,0,1,747.7,422Z" transform="translate(-198.56 -182.02)"/><path class="cls-59" d="M709,364.9c-16.31-2.81-32.74-.79-49.11-1.22-.75-3.76-.16-6.11,4.62-6,12.89.25,25.79.21,38.69.15,3.83,0,6.24,1.17,6.16,5.4.5.5.61.92.34,1.25A1,1,0,0,1,709,364.9Z" transform="translate(-198.56 -182.02)"/><path class="cls-60" d="M765.71,433.4c0,5-.05,10,0,15,0,2.67-1.3,3.5-3.83,3.48s-3.78-1-3.78-3.58c0-9.68-.15-19.35-.07-29,0-2.58,1.35-4.4,4.27-4.6,3.7-.24,3.38,2.39,3.4,4.69C765.76,424,765.72,428.71,765.71,433.4Z" transform="translate(-198.56 -182.02)"/><path class="cls-61" d="M659.85,400.57l48.94-.24a3.28,3.28,0,0,1,1.45,2.14c.07,1.4-.22,2.61-1.75,3.13-14.43.07-28.86.08-43.28.27C661.34,405.92,658.72,405.3,659.85,400.57Z" transform="translate(-198.56 -182.02)"/><path class="cls-62" d="M690.57,421.65c.14,8.05,0,16.11.5,24.14.31,5.3-1.92,6.68-6.62,5.67-4.05-8.59-1-17.68-1.83-26.47a7.4,7.4,0,0,1,.63-2.7C685.47,419.66,688,420.52,690.57,421.65Z" transform="translate(-198.56 -182.02)"/><path class="cls-19" d="M801,452h21.21L824,462.28l-.09.11h-1.41c-9-.34-18,.5-26.84-1.87,3.08-3.5,7.84-.29,11.35-2.73C806.79,453.87,800.55,456.36,801,452Z" transform="translate(-198.56 -182.02)"/><path class="cls-63" d="M670.07,463.91c-4.29,4-9.5,1.61-14.25,1.86-8.18.41-16.4,0-24.6.17-4.52.12-7.82-1.13-10-6.89,16.82.32,32.9-1.87,49,1.17-2.7,3.21-6.43,2.07-9.74,2.06-9.53,0-19.08.54-28.59-.33,9.63.9,19.27.13,28.9.42C663.92,462.47,667.25,461.69,670.07,463.91Z" transform="translate(-198.56 -182.02)"/><path class="cls-64" d="M720,398.63c5,4.41,6.92,2.68,6.9-3.32q-.07-18.68-.08-37.34l2.07,1.88c2.76,3.61,2.34,7.89,2,11.91-.87,11.31-1,22.68-2.65,33.93C722.89,406.39,719.18,405.16,720,398.63Z" transform="translate(-198.56 -182.02)"/><path class="cls-65" d="M649,406.16a5.63,5.63,0,0,1-5.43-4,1.56,1.56,0,0,1-.46-1.38c.1-.48.21-.72.32-.72a5.92,5.92,0,0,1,2-1,6.07,6.07,0,0,0,2.89-1.23c.63-10.61-.57-21.22.56-31.78a6.55,6.55,0,0,1,1.2-2.44,1.59,1.59,0,0,1,2.39-.09q.06,17.6.11,35.19c1.71,2.44,2.1,4.79-.5,6.93Z" transform="translate(-198.56 -182.02)"/><path class="cls-66" d="M716.16,451.44c.18-.54.3-1.53.55-1.56,5.88-.84,10.06-4.25,13.57-8.74.92,4.41,8.5,4.28,7,10.32Z" transform="translate(-198.56 -182.02)"/><path class="cls-67" d="M747.69,415.33c-16.36-1.45-32.74-.49-49.11-.51,2.4-3.3,5.91-1.84,8.94-1.89q16.25-.26,32.51,0C742.71,413,746.08,411.57,747.69,415.33Z" transform="translate(-198.56 -182.02)"/><path class="cls-68" d="M737.31,451.46c-1.17-4.24-9.59-3.54-7-10.32h0a2.37,2.37,0,0,1,3.54,0h0c4.11,3.78,9.73,0,14,2.83a3.66,3.66,0,0,1,.89,3.67c-1.64,3.26-5.72,1.5-7.84,3.8Z" transform="translate(-198.56 -182.02)"/><path class="cls-69" d="M622.46,414.64c-.55-.05-1.1-.08-1.66-.1-.5-.36-.68-.72-.53-1.1s.31-.57.47-.57l30-.07c6.4,1.14,13.25-2.16,19.36,1.95Z" transform="translate(-198.56 -182.02)"/><path class="cls-70" d="M822,415c-16.36-.36-32.73-1-49.08.37.12-.27.21-.75.37-.77C789.58,412.08,805.83,411.14,822,415Z" transform="translate(-198.56 -182.02)"/><path class="cls-71" d="M733.78,384.59h-3.49a72.43,72.43,0,0,1,0-24.75h3.56A72.18,72.18,0,0,1,733.78,384.59Z" transform="translate(-198.56 -182.02)"/><path class="cls-72" d="M708.49,405.6c.23-1,.45-2.08.68-3.12,2.75-11.87-1.65-24,1.38-35.87L709,364.9a2.61,2.61,0,0,1,.36-1.68c3,.62,3.29,2.85,3.28,5.36q0,15.85,0,31.71C712.6,403.15,712.25,405.68,708.49,405.6Z" transform="translate(-198.56 -182.02)"/><path class="cls-73" d="M730.26,359.84l0,24.75c-1.13,7,2.25,14.41-2,21.1q.32-22.92.62-45.84C729.34,359.83,729.8,359.83,730.26,359.84Z" transform="translate(-198.56 -182.02)"/><path class="cls-74" d="M733.78,384.59q0-12.37,0-24.75c.48,0,1,0,1.44,0q.32,22.9.64,45.8C731.43,399,735,391.56,733.78,384.59Z" transform="translate(-198.56 -182.02)"/><path class="cls-75" d="M626,462.42c1.76-3.57,5.07-2.06,7.7-2.1,12.18-.17,24.35-.09,36.53-.1a8.12,8.12,0,0,1,.49,1.49c0,.16-.37.39-.57.58C655.41,463.91,640.69,463.6,626,462.42Z" transform="translate(-198.56 -182.02)"/><path class="cls-76" d="M626,462.42l44.15-.13c0,.54,0,1.08,0,1.62-12.56.07-25.11.18-37.67.19C630.16,464.1,627.65,464.74,626,462.42Z" transform="translate(-198.56 -182.02)"/><path class="cls-77" d="M711.13,461.68c-1.56-.75-1.2-2.29-.09-2.3,12.23-.12,24.55-2.56,36.65,1.18C735.63,464.88,723.38,463.43,711.13,461.68Z" transform="translate(-198.56 -182.02)"/><path class="cls-78" d="M711.13,461.68c12.12-2.56,24.39-.36,36.56-1.12-.48.65-1,1.3-1.45,1.94-11.77,2.36-23.54,3-35.26-.32Z" transform="translate(-198.56 -182.02)"/><path class="cls-79" d="M711,462.18l35.26.32-1.89,1.69a137.27,137.27,0,0,1-31.71.05Z" transform="translate(-198.56 -182.02)"/><path class="cls-80" d="M795.65,460.53c9,.66,18.17-2.66,26.84,1.87l-.29.21c-4.78,1.64-9.9-.53-14.65,1.33C804.16,460.8,798.12,466.89,795.65,460.53Z" transform="translate(-198.56 -182.02)"/><path class="cls-81" d="M712.64,464.24l31.71-.05A62.19,62.19,0,0,1,712.64,464.24Z" transform="translate(-198.56 -182.02)"/><path class="cls-19" d="M832.78,469.39H824c1.69-2.35.1-4.67-.06-7l.09-.11c1.47.61,3.89-7.8,4.48.44C828.7,465.86,833.29,465.93,832.78,469.39Z" transform="translate(-198.56 -182.02)"/><path class="cls-82" d="M749.47,421.6a8,8,0,0,1,.45-1.52c2.36,10.5,2.94,21-.29,31.43C746.36,441.56,748.73,431.58,749.47,421.6Z" transform="translate(-198.56 -182.02)"/><path class="cls-83" d="M682.62,451.51c-3.25-10.52-2.52-21.09-.41-31.68a3,3,0,0,1,1.18,2.82C682.94,432.26,684.38,441.93,682.62,451.51Z" transform="translate(-198.56 -182.02)"/><path class="cls-84" d="M682.62,451.51q0-14.91.07-29.8a1.09,1.09,0,0,1,1.79.3l0,29.45Z" transform="translate(-198.56 -182.02)"/><path class="cls-85" d="M749.47,421.6q.09,15,.16,29.92l-.86.08-.85-.15a2.2,2.2,0,0,1-.19-3.22v-3.58a9.19,9.19,0,0,1,0-10.58l0-12.12Z" transform="translate(-198.56 -182.02)"/><path class="cls-86" d="M684.48,422l-1.79-.3-.48-1.88c1-3.94,3.2-6,7.52-4.83,3.09,5.91-2.62,5.19-5.17,6.85Z" transform="translate(-198.56 -182.02)"/><path class="cls-87" d="M643.76,359.87l1.69-1.73,1.84-.55c5.23-.78,4.49,2.48,3.84,5.68l-.51.14c-2,1.87-4.19,2.91-7,2.12a4.56,4.56,0,0,1-1.24-2.21A3.94,3.94,0,0,1,643.76,359.87Z" transform="translate(-198.56 -182.02)"/><path class="cls-88" d="M698.69,451.63,702,452c-2.32,2.78,1.6,6.19-1.2,9.4A9,9,0,0,1,698.69,451.63Z" transform="translate(-198.56 -182.02)"/><path class="cls-89" d="M682.59,460c3.38-.61,5.58.21,7.49,2a2.7,2.7,0,0,1-.92,1.37C686.25,464.85,684.24,463.92,682.59,460Z" transform="translate(-198.56 -182.02)"/><path class="cls-90" d="M787,460.52c2.11,1.35,1.36,2.56-.2,3.72-4.36.46-8.92,2.74-12.76-1.44C777.87,459.58,783,463.23,787,460.52Z" transform="translate(-198.56 -182.02)"/><path class="cls-91" d="M774.33,462.52c3.78,3.14,8.32.86,12.42,1.72-5,1.65-10.29,5-13.73-2.37C773.73,461.53,774.15,461.77,774.33,462.52Z" transform="translate(-198.56 -182.02)"/><path class="cls-56" d="M659.87,377.51q7,3.53,0,7.06Z" transform="translate(-198.56 -182.02)"/><path class="cls-19" d="M807.55,463.94c4.71-2.28,9.8-.45,14.65-1.33C817.54,465.59,812.44,463.59,807.55,463.94Z" transform="translate(-198.56 -182.02)"/><path class="cls-84" d="M684.56,421.85c1.78-2.24,6.23-2.47,5.16-6.85,2.69,1.91,1.32,4.35.85,6.66C688.65,424.11,686.55,421.27,684.56,421.85Z" transform="translate(-198.56 -182.02)"/><path class="cls-92" d="M774.33,462.52a4.34,4.34,0,0,0-1.31-.65c4.38-3.12,9.25-1.23,13.93-1.35C783.21,464.13,778.48,461.48,774.33,462.52Z" transform="translate(-198.56 -182.02)"/><path class="cls-93" d="M747.73,448.23c.06,1.07.12,2.15.19,3.22h-7C741.61,447,745.08,448.53,747.73,448.23Z" transform="translate(-198.56 -182.02)"/><path class="cls-94" d="M652,405.62q.24-3.47.5-6.93c2.24.25,3.47,1.36,3.35,3.76S654.22,405.66,652,405.62Z" transform="translate(-198.56 -182.02)"/><path class="cls-95" d="M651.13,363.27c.26-2.93.23-5.67-3.84-5.68,6.06-1.4,6.31-1.11,5.14,5.91A11.41,11.41,0,0,0,651.13,363.27Z" transform="translate(-198.56 -182.02)"/><path class="cls-19" d="M826.28,449.33c.4-.42.87-1.37,1.47-1.47,1.74-.27,1.41,1.29,1.41,2.23,0,.44,1,1.84-.73,1.54C827.31,451.43,826.31,451,826.28,449.33Z" transform="translate(-198.56 -182.02)"/><path class="cls-96" d="M309.86,479.93a10.36,10.36,0,0,1,6.81-1.58c2,2.15,2.49,5.69,5.92,6.58,5-.25,10-.35,15-.35q240.33,0,480.64,0c4.06,0,8.24.9,12-.9-2.72-2.14-5.79-1.06-8.59-1.06q-242.72-.09-485.42,0c-3.78,0-7.68-.63-11.24,1.34a4.52,4.52,0,0,1-4.55-.08,3.74,3.74,0,0,1-.27-5.46q254.82,0,509.64.18c9.42,0,15.77-2.76,20.25-10.33,4.18-7.07,9.76-9.62,18.12-9.56,51.82.37,103.64.22,155.45.24.31,7.6-5.64,5.16-9.55,6a214.74,214.74,0,0,0-24-.72c4.36.26,9.87-.52,15.34.43,3.87,3.14,8.93,1.86,13.16,3.57.57.47,1.32.79,1.53,1.62.4-.86-.84-.92-.8-1.67,6.11-7.41,9.92-8.54,17.72-5.29,1.89.79,3.69,1.79,5.79,2,13.22,1.39,15.56,3.68,17.14,16.69-2,10.18-7,19.19-11,28.58l-4,7.06c-.89,2-1.14,4.47-3.77,5.21-9.82,13.88-13,14.35-29.6,11.23-25.48-4.77-45-17.58-58.67-39.49-1.19-1.32-.33-4.73-3.25-4.07-3.15.72-.87,4-1.93,5.83l8.76,16.23c4.07,5-1.19,8.7-2,13.87,4-2.6,7.38-7.12,12.45-3.41l.13.09c1.39,2.48,3.74,4.4,4.82,6.94,1.38,3.24,3.41,7.27-2.53,8.64-45.36.3-90.69.12-136,.12q-234.48,0-468.95,0c-9.4,0-18.79,1-28.18.12l-1.74.16C321.4,521.06,311.3,502.31,309.86,479.93Z" transform="translate(-198.56 -182.02)"/><path class="cls-97" d="M351.72,419.92q.18-16.69.38-33.39c1.76-1.55,3.9-1,5.9-1q75.28,0,150.57,0c2,0,4.15-.54,5.89,1,0,13.82-.16,27.65.17,41.47.12,5.08-1.56,6.51-6.52,6.5-50-.16-100-.1-150-.1-2.9,0-6.14.54-6.33-3.88A8.5,8.5,0,0,1,351.72,419.92Z" transform="translate(-198.56 -182.02)"/><path class="cls-98" d="M433.33,451.77c-24.7,0-49.39.05-74.08,0-3.06,0-7.33,1.8-7.37-4.38,0-5.93,3.93-4.71,7.21-4.71q74.07-.06,148.16,0c3.15,0,7.32-1.51,7.4,4.5s-4.06,4.56-7.24,4.57C482.72,451.8,458,451.77,433.33,451.77Z" transform="translate(-198.56 -182.02)"/><path class="cls-99" d="M302.54,529.22l-3.57.21c-4.19.82-6.35,3.83-7.88,7.44-2.09,4.9-5.7,5.59-8.65,1.69-3.44-4.54-10.61-4.89-12-11.35,6.28-4.7,6.3-8.66-.47-13.42a36,36,0,0,1-13.22-18.31c-2.7-8-1.72-9.24,6.91-8.14,12.61,1.61,22.59,7.79,30.38,17.76,2.29,2.94,4,6.71,8.5,7,2.06,2.55,8.57.28,7.43,5.56-1,4.53-5.75,2.56-8.88,2.77.9.42,2.07.17,3.2.25,2.35.15,5.22-.05,5.75,2.87.69,3.88-2.71,3.77-5.19,4.39A6.34,6.34,0,0,0,302.54,529.22Z" transform="translate(-198.56 -182.02)"/><path class="cls-100" d="M995.08,536.8c2.21-.32,3.95.64,7,3.32H360.89c-2.94,0-5.89.08-8.83.13-3.55,2.7-7.1,2-10.66,0-2.33-.53-5.1.72-7-1.68v-.8c3.51-.6,7-.29,10.57-.29q308.06,0,616.11,0C972.43,537.51,983.7,534.85,995.08,536.8Z" transform="translate(-198.56 -182.02)"/><path class="cls-101" d="M270.44,527.21c.9,1.81,3.27,1.53,4.25,2.52,7.54,7.71,14.39,12.07,20.53-1.45,1.26-2.77,3.26-1.8,3.75,1.15a74.19,74.19,0,0,1-17.89,18.71c-4.34,4.86-10.45,4.93-16.2,6-11.92-.27-12.57-3-4.1-17.27l4.21-5.57Z" transform="translate(-198.56 -182.02)"/><path class="cls-102" d="M514.46,386.54H352.1c2.42-3.31,5.95-1.89,9-1.9q69.71-.15,139.41-.1C505.1,385.56,510.29,382.48,514.46,386.54Z" transform="translate(-198.56 -182.02)"/><path class="cls-101" d="M302.54,529.22c-.12-4.17,5-2.15,6.23-5.59-3.16-2.1-6.77-.76-10-1.31-2.61-.44-3.64-2.16-2.84-4.4,1-2.85,2.5-.87,3.94,0,2.71,1.53,5.57,1.36,8.56.22.26-4.25-6.44-1.6-5.85-6,4.53-1,7.67-.1,9.33,5,1.31,4,3.74,7.64,6,12.13Z" transform="translate(-198.56 -182.02)"/><path class="cls-103" d="M369.77,463.9a2.81,2.81,0,0,1,.23-1.59c20.61-1.83,41.26-.27,61.88-.86,4.6-.14,9.3,1,13.81-.81,2,.26,1.41,1.88,1.59,3.09C446,465.39,444.1,465,442.4,465q-33.82,0-67.64,0C373,465,371.21,465.31,369.77,463.9Z" transform="translate(-198.56 -182.02)"/><path class="cls-104" d="M369.77,463.9l77.51-.17c-1.12,2.31-3.26,2.16-5.3,2.16H375.21C373.17,465.89,371.05,466,369.77,463.9Z" transform="translate(-198.56 -182.02)"/><path class="cls-105" d="M445.69,460.64c-2.32,2.62-5.44,1.66-8.24,1.67-22.48.05-45,0-67.45,0,.16-1.95,1.59-2.21,3.08-2.2Q409.38,460.35,445.69,460.64Z" transform="translate(-198.56 -182.02)"/><path class="cls-106" d="M454.71,463.81c.12-1.28-.5-2.91,1.57-3.24a338.17,338.17,0,0,0,56.66-.07c2.09.4,1.49,2,1.57,3.37-14.74,2.54-29.59.58-44.38,1C465,465,459.7,466.2,454.71,463.81Z" transform="translate(-198.56 -182.02)"/><path class="cls-107" d="M454.71,463.81l59.8.06c-.93.62-1.85,1.79-2.77,1.8q-27.15.15-54.31,0C456.52,465.65,455.62,464.45,454.71,463.81Z" transform="translate(-198.56 -182.02)"/><path class="cls-105" d="M512.94,460.5c-2,2.51-4.75,1.82-7.29,1.83q-21,.07-42,0c-2.54,0-5.33.71-7.33-1.75C475.17,459.71,494.05,459.76,512.94,460.5Z" transform="translate(-198.56 -182.02)"/><path class="cls-108" d="M351.72,419.92v10.61a10.61,10.61,0,0,1-6.47-1.64c0-3,0-6,0-9Z" transform="translate(-198.56 -182.02)"/><path class="cls-6" d="M367.31,439.5c5.08-2.45,10.18-2.41,17.62-.34A23.24,23.24,0,0,1,367.31,439.5Z" transform="translate(-198.56 -182.02)"/><path class="cls-109" d="M341.4,540.28l10.66,0c1.61,4.18.2,5.51-3.94,4.08-2.87-1-4.73-1-3.17,2.85,1,.69.93,1.27-.16,1.76l-3.39-1.78a2.38,2.38,0,0,1,0-3.52Z" transform="translate(-198.56 -182.02)"/><path class="cls-110" d="M343.29,464.14a29.9,29.9,0,0,1-23-.23C328,461.54,335.65,461.22,343.29,464.14Z" transform="translate(-198.56 -182.02)"/><path class="cls-38" d="M264.88,554.09l16.2-6c-.19,2.53-3.66,3.29-3.3,6.11Z" transform="translate(-198.56 -182.02)"/><path class="cls-111" d="M343.29,464.14l-23-.23a2.81,2.81,0,0,1,.22-1.59,63.41,63.41,0,0,1,22.86.06Z" transform="translate(-198.56 -182.02)"/><path class="cls-112" d="M343.36,462.38l-22.86-.06A24.9,24.9,0,0,1,343.36,462.38Z" transform="translate(-198.56 -182.02)"/><path class="cls-113" d="M532.42,460.58c-.09,1.12-.18,2.25-.26,3.38l.08,0c-3.47,1.53-6.91,1.94-10.3-.24C523.69,456.8,528.73,461,532.42,460.58Z" transform="translate(-198.56 -182.02)"/><path class="cls-6" d="M471.92,440c-3.66,1.47-6.48,1.77-11.42-1.27C465.67,437.68,468.54,436.58,471.92,440Z" transform="translate(-198.56 -182.02)"/><path class="cls-6" d="M439.56,440.13c4.65-3.41,7.5-2.31,11.48-1.94C447.61,442.49,444.52,440.92,439.56,440.13Z" transform="translate(-198.56 -182.02)"/><path class="cls-114" d="M544.67,458.92c-.31,3.08,3.4,3.56,4.51,6.53l-6.26.43C543.19,463.48,542,460.72,544.67,458.92Z" transform="translate(-198.56 -182.02)"/><path class="cls-6" d="M394.76,441c-1.18,0-2.49-.07-2.78-1.38-.36-1.67,1.16-1.72,2.24-1.86s2.48.06,2.77,1.36C397.35,440.81,395.81,440.74,394.76,441Z" transform="translate(-198.56 -182.02)"/><path class="cls-6" d="M405,441c-1.14-.09-2.5-.09-2.48-1.64s1.38-1.59,2.51-1.59,2.5.09,2.48,1.63S406.17,440.92,405,441Z" transform="translate(-198.56 -182.02)"/><path class="cls-6" d="M421.78,439.06c.13,1.66-1.2,1.92-2.25,1.84s-2.48-.6-2.72-1.29c-.54-1.58,1-1.7,2.12-1.85A2.46,2.46,0,0,1,421.78,439.06Z" transform="translate(-198.56 -182.02)"/><path class="cls-6" d="M485.45,439.67a2.46,2.46,0,0,1-2.87,1.3c-1.08-.15-2.68-.27-2.13-1.86.24-.68,1.76-1.2,2.74-1.28S485.59,438,485.45,439.67Z" transform="translate(-198.56 -182.02)"/><path class="cls-6" d="M499.49,439.36c-.22,1.55-1.43,1.59-2.56,1.59s-2.49-.08-2.48-1.62,1.39-1.58,2.52-1.58S499.3,437.81,499.49,439.36Z" transform="translate(-198.56 -182.02)"/><path class="cls-115" d="M341.42,543.65c0,1.17,0,2.35,0,3.52h-7c0-1.17,0-2.33,0-3.5Z" transform="translate(-198.56 -182.02)"/><path class="cls-116" d="M360.76,460.85c1.67.17,1.2,1.67,1.62,2.61-3.31,2.74-6.78,1.83-10.27.48a2.72,2.72,0,0,1,.21-1.64C354.89,460.43,358.14,462.46,360.76,460.85Z" transform="translate(-198.56 -182.02)"/><path class="cls-117" d="M352.11,463.94l10.27-.48C359.12,467.19,355.67,466.72,352.11,463.94Z" transform="translate(-198.56 -182.02)"/><path class="cls-118" d="M521.94,463.69l10.3.24C528.74,466.75,525.29,467.21,521.94,463.69Z" transform="translate(-198.56 -182.02)"/><path class="cls-119" d="M360.76,460.85c-2.46,2.53-5.59,1.16-8.44,1.45C354.5,458.13,357.8,460.48,360.76,460.85Z" transform="translate(-198.56 -182.02)"/><path class="cls-120" d="M931.71,414.43c2.83,3.4,5.2,23.8,3.35,27.69a2.74,2.74,0,0,1-2.64,1.85c-16.06-.6-32.22,2-48.2-1.45a71.67,71.67,0,0,1-.11-26l1.82-2A247.39,247.39,0,0,1,931.71,414.43Z" transform="translate(-198.56 -182.02)"/><path class="cls-121" d="M1011.64,443.85c-14.1.17-28.21.27-42.31.55-4.05.09-5.94-1.28-5.76-5.56.27-6.16.19-12.34.26-18.51.41-.43.78-1.12,1.25-1.2,15.88-2.61,31.75-3.8,47.51.78C1015.94,428,1016.7,436.05,1011.64,443.85Z" transform="translate(-198.56 -182.02)"/><path class="cls-120" d="M906.94,400.48q-.24-17.89-.48-35.79c-.08-5.27,2.32-7.55,7.6-6.54q-.12,21.15-.25,42.29C911.53,402.45,909.24,402.28,906.94,400.48Z" transform="translate(-198.56 -182.02)"/><path class="cls-58" d="M1012.84,422c-7.59-3.53-15.62-1.29-23.44-1.64-8.5-.38-17,0-25.57,0,0-1.81-.09-3.64-.14-5.46,16.36-1.58,32.7-2.2,49,.31l2.33,4.92a1.62,1.62,0,0,1,0,2.08A2,2,0,0,1,1012.84,422Z" transform="translate(-198.56 -182.02)"/><path class="cls-122" d="M875.21,444.53c-4.87,0-7.53-1.64-7-7.24.51-5.21-.29-10.54.26-15.73.52-5,2.14-9.74,8.73-5.1,1.26,9.06.42,18.16.48,27.25A1.54,1.54,0,0,1,875.21,444.53Z" transform="translate(-198.56 -182.02)"/><path class="cls-123" d="M955.7,420.08c.15,6,.27,12.06.45,18.09.15,4.84-1.65,7.18-6.76,5.46-3.35-5.61-1-11.76-1.67-17.61C948.05,420.93,950.52,418.69,955.7,420.08Z" transform="translate(-198.56 -182.02)"/><path class="cls-124" d="M1012.72,415.17l-49-.31c5.45-4.14,11.76-1,17.56-2.07h3.55c7,0,14,0,21,.11C1008.29,413,1011.27,411.89,1012.72,415.17Z" transform="translate(-198.56 -182.02)"/><path class="cls-125" d="M931.71,414.43l-45.78,0c6.82-3.39,14.11-.72,21.12-1.68a5.17,5.17,0,0,1,7,0C919.92,413.64,926.07,411.21,931.71,414.43Z" transform="translate(-198.56 -182.02)"/><path class="cls-126" d="M955.7,420.08c-.74,3.82-6-1.14-6.41,3.27a1.38,1.38,0,0,1-1.87.49,1.77,1.77,0,0,1,0-2.06c-1.77-5.07,1.79-6.63,5.4-7C956.73,414.3,956.24,417.43,955.7,420.08Z" transform="translate(-198.56 -182.02)"/><path class="cls-19" d="M875.21,444.53a.92.92,0,0,1,1.15-.22,1.41,1.41,0,0,1,2.34.34l3.58,0h0c.25,3-2.34,4.53-3.49,6.81H868.18C869.06,447.67,875.35,449.35,875.21,444.53Z" transform="translate(-198.56 -182.02)"/><path class="cls-127" d="M1012.84,422l1.77-.36c1.6,7.64,2.16,15.27-.35,22.85l-2.63-.61C1013.39,436.63,1013.34,429.31,1012.84,422Z" transform="translate(-198.56 -182.02)"/><path class="cls-128" d="M884.11,416.48q0,13,.11,26l-1.94,2.15h0C883.25,435.3,880.25,425.67,884.11,416.48Z" transform="translate(-198.56 -182.02)"/><path class="cls-129" d="M878.7,444.65l-2.34-.34q.43-13.94.86-27.85C880.4,425.71,878,435.26,878.7,444.65Z" transform="translate(-198.56 -182.02)"/><path class="cls-130" d="M1014.26,444.46q.18-11.41.35-22.85a10.27,10.27,0,0,1,.44-1.53C1017.22,428.29,1018.47,436.47,1014.26,444.46Z" transform="translate(-198.56 -182.02)"/><path class="cls-131" d="M947.37,421.78a14.76,14.76,0,0,1,.63,1.6,84.41,84.41,0,0,1,0,20.77C944.24,436.8,945.3,429.3,947.37,421.78Z" transform="translate(-198.56 -182.02)"/><path class="cls-132" d="M948,444.15q0-10.38,0-20.77c.43,0,.86,0,1.3,0l.09,20.29A1.63,1.63,0,0,1,948,444.15Z" transform="translate(-198.56 -182.02)"/><path class="cls-133" d="M1030.73,451.49h-10.58Q1025.45,443.92,1030.73,451.49Z" transform="translate(-198.56 -182.02)"/><path class="cls-134" d="M906.94,400.48l6.87,0c1.06,7.58-2.77,5.84-6.87,3.6Z" transform="translate(-198.56 -182.02)"/><path class="cls-135" d="M914.06,412.8h-7c.17-2.46,1.53-3.5,3.93-3.35C913.11,409.58,913.87,410.92,914.06,412.8Z" transform="translate(-198.56 -182.02)"/><path class="cls-49" d="M344.79,549c0-.59.11-1.17.16-1.76l10.6-.26c3.21-2.13,6.84-1.48,10.32-1.48q286.62,0,573.26,0c3.48,0,7.11-.64,10.32,1.46h7.06a5.84,5.84,0,0,1,7.08,0h14.13a16.26,16.26,0,0,1,14.21,0H1017l-5.59,3.89c-19.54,12.3-41.15,16.88-63.9,16.88q-270.56.06-541.11,0c-13.9,0-27.62-1.33-40.47-7.28a54.39,54.39,0,0,1-12.67-5.86Z" transform="translate(-198.56 -182.02)"/><path class="cls-136" d="M364.41,557.84c15.36,5.39,31.17,7.12,47.43,7.11q267-.23,534,0c20.85,0,40.62-4.41,59.78-12.25,1.88-.77,3.87-1.26,5.8-1.88l-7.68,6.79c-12.16,6.91-25.22,11.63-38.44,16l-15.87,2.26q-262.51.07-525,.25a174,174,0,0,1-40.15-4.37l-14.7-6.55C369.29,561.72,363.26,562.31,364.41,557.84Z" transform="translate(-198.56 -182.02)"/><path class="cls-109" d="M949.45,546.91c-2.35.1-4.7.28-7,.28q-289.9,0-579.81,0c-2.35,0-4.7-.17-7.05-.26,1.42-5.22,5.74-3.18,8.84-3.19q72.92-.18,145.82-.09,214.31,0,428.61.13C942.4,543.78,947.34,541.14,949.45,546.91Z" transform="translate(-198.56 -182.02)"/><path class="cls-137" d="M995.08,536.8c-2.38,2.65-5.52,1.49-8.32,1.49q-321.78.09-643.57,0c-2.92,0-5.85-.33-8.78-.51,3.53-2.27,7.47-1.17,11.2-1.17q313.41-.09,626.81-.06c3.16-2.61,6.67-4.19,10.89-3.68Z" transform="translate(-198.56 -182.02)"/><path class="cls-138" d="M966.9,522.54c-3.48-.58-6.15.63-8.53,3.26-1.67,1.85-3.78,5-6.49,3.12-3.74-2.56,1.36-4.59,1.58-7.27.25-3.12,4-5.65,3-9.57Z" transform="translate(-198.56 -182.02)"/><path class="cls-138" d="M983.31,532.9c-3.27,2.29-6.56,4.51-10.89,3.68-.43-5.18-5.83-8.43-5.39-14Z" transform="translate(-198.56 -182.02)"/><path class="cls-109" d="M991.93,546.91H977.72c4.46-6.18,10.55-2.43,16-2.63Z" transform="translate(-198.56 -182.02)"/><path class="cls-139" d="M947.67,495.85c-1.92-2.45-3.07-5.06-.51-7.68a3.42,3.42,0,0,1,3.08-.63c2.71,1.31,3.45,3.68,2.61,6.55C949.27,489.27,949.52,495.65,947.67,495.85Z" transform="translate(-198.56 -182.02)"/><path class="cls-109" d="M963.59,546.91h-7.08Q960.05,539.9,963.59,546.91Z" transform="translate(-198.56 -182.02)"/><path class="cls-16" d="M1041.12,522.35c1.26-1.73,2.51-3.47,3.77-5.21C1046.86,521.21,1044.66,522.27,1041.12,522.35Z" transform="translate(-198.56 -182.02)"/><path class="cls-44" d="M1026.72,548.83a4.27,4.27,0,0,1-3.15,3.24c-.56-1.26-1.7-2.71.08-3.65C1024.39,548,1025.68,548.66,1026.72,548.83Z" transform="translate(-198.56 -182.02)"/><path class="cls-140" d="M366.44,352.72c-1.59-6.75.64-9,7.92-8.94q59,.54,117.93,0c6.57-.05,8.95,1.57,8.23,8.28-.66,6.09-.32,12.29-.41,18.45q-3,7.26-10.22,4.15c-2.78-2.61-1.36-6-1.76-8.46-2.81,7.34-7.68,7.63-13.8.27a14.53,14.53,0,0,1-.72-3.39c-1.08-10.51-3-11.6-13.93-8-1.84,3.22-1.09,6.6-.65,9.94,1.33,2.26,3.6,2.54,5.87,2.93,2.74.47,5,1.53,4.54,5-7.65,5.57-16.24,3.17-24.17,1.79-4.47-.78-3.6-6.72-3.74-10.73-.44-12.59-.62-12.79-13.11-11.75a6.21,6.21,0,0,0-1.92,1.49c-2.31,3.73-2.08,7.56-.52,11.44a7.89,7.89,0,0,0,3.91,2.39c3.38,1.11,7.27.08,10.3,2.57,2.22,4.22-.54,5.24-3.78,5.5a70.25,70.25,0,0,1-12.22-.09c-5.42-3-10.86-3.93-16.35-.15a87.07,87.07,0,0,1-15.06.21c-3.24-1.47-6.49-3.19-9.86-.24a8.31,8.31,0,0,1-6.13-.56c-2.18-2.73-4.77-5.12-7.06-7.71-2.93-3.31-3.1-8,.38-11.07,2.88-2.58,6-1.32,7.89,2.18,1.11-2.45-.68-4.81,0-8.59C373.75,352.09,370.66,355.65,366.44,352.72Z" transform="translate(-198.56 -182.02)"/><path class="cls-141" d="M361.27,336.55,357.54,335c-1.52-8.87,0-11.09,9.17-11.09,18.17,0,36.31-.08,54.51,1.16,20.77,1.42,41.72.17,62.58.41,7.84.1,15.78-1.32,23.53,1,3.14,6.78,1.28,9.2-6.43,9.07-18.91-.31-37.83.13-56.74.27-6.64,2.07-13.46,1-20.18,1C403.08,336.78,382.17,337.24,361.27,336.55Z" transform="translate(-198.56 -182.02)"/><path class="cls-142" d="M361.27,336.55c6.82-2.39,13.86-1,20.79-1,20.7-.1,41.4.17,62.1.29,14.88,2.4,29.86.45,44.79,1,5.53.2,11.06,0,17.1,0-1.69,2.57-3.54,1.72-5.05,1.72q-67.08.09-134.16,0a51,51,0,0,1-5.9-.58c-.08,0-.2-.5-.14-.73A2.8,2.8,0,0,1,361.27,336.55Z" transform="translate(-198.56 -182.02)"/><path class="cls-143" d="M421.05,308.8l7.18-7.25a12.2,12.2,0,0,1,10.07.09l5.75,5.18c3.94,2.95,2.57,6.84,1.9,10.62a7.28,7.28,0,0,0-.55,1.63c-7.51,1.83-15.06,1.11-22.61.35C419.35,316.35,421.71,312.32,421.05,308.8Z" transform="translate(-198.56 -182.02)"/><path class="cls-144" d="M489.88,374c4,.64,7.32-.8,10.23-3.44.1,1.66.21,3.33.32,5-1.44,1.43-3.28,1.07-5,1.07q-62.08,0-124.17,0c-1.72,0-3.55.33-5-1a3,3,0,0,1,.19-1.61c3.44-2.86,6.89-2.6,10.33,0h7.09a5.1,5.1,0,0,1,7,0h17.7a13.89,13.89,0,0,1,14.12,0c4.68,0,9.36.1,14-.09,2.52-.1,4.27-1,1.53-3.61a3.65,3.65,0,0,1-.26-2.37,47.23,47.23,0,0,0,1.38-6.77c.9-5.46-.8-8.34-6.76-8.05-2.84.14-5.86.32-8.11-2.09,5.06-3.46,10.69-1.33,16.06-1.54,2.57-.11,3.26,2,3.31,4.27A48.14,48.14,0,0,0,444,359c.61,4.78-2.55,11.93,1.82,13.89,6.38,2.85,14.23,1.75,21.4.27.66-.13,1-1.9,1.48-2.91a3.82,3.82,0,0,1,3.56-.54c1.88.95,3.63,2.18,5.83,2.33C482.11,372,486.3,371.21,489.88,374Z" transform="translate(-198.56 -182.02)"/><path class="cls-145" d="M507.33,326.47c-46.89,0-93.78.21-140.67,0-6.41,0-10.35,1-9.12,8.48-3.68-2.94-1.28-7-2-10.52,1.94-1.65,4.3-1.72,6.67-1.73q23.37-.06,46.74,0c2.37,0,4.73.05,6.68,1.71,27.58,0,55.17,0,82.75.1C501.41,324.56,505,323.11,507.33,326.47Z" transform="translate(-198.56 -182.02)"/><path class="cls-146" d="M376.76,374H366.43q0-10.62,0-21.24c2.6-1.45,7.35.59,7.45-5.09,0-2,2.73-2.26,4.31-1.35,3.64,2.08,1.9,5.8,2,8.79.08,2.69,1.44,6.2-2.13,7.81-1.4.64-3.82.93-3.64-1.91.1-1.62,3.41-3.69-.8-4.39-2-.33-3.57.6-3.69,2.75-.15,2.5-1.35,6.17,1.86,6.91C376.52,367.34,377,370.17,376.76,374Z" transform="translate(-198.56 -182.02)"/><path class="cls-147" d="M366.24,375.57l134.19-.06c-1.54,2.49-4.05,2-6.33,2q-60.77,0-121.51,0C370.31,377.49,367.8,378,366.24,375.57Z" transform="translate(-198.56 -182.02)"/><path class="cls-148" d="M415.65,324.45l-60.09,0V321l56.56-.09C416.41,319,415.53,322.22,415.65,324.45Z" transform="translate(-198.56 -182.02)"/><path class="cls-149" d="M422.79,319.42l22.61-.35C437.91,322.52,430.36,321.58,422.79,319.42Z" transform="translate(-198.56 -182.02)"/><path class="cls-150" d="M446,317.44q-1-5.31-1.9-10.62c6.2,1.88,2.24,7.09,3.47,10.6C447,317.44,446.47,317.44,446,317.44Z" transform="translate(-198.56 -182.02)"/><path class="cls-151" d="M949.44,577.23c-3.22,3.2-7.28,1.7-10.92,1.7q-263.21.12-526.4.07c3.22-3.18,7.28-1.69,10.93-1.69Q686.24,577.19,949.44,577.23Z" transform="translate(-198.56 -182.02)"/><path class="cls-152" d="M428.05,200.68a11.64,11.64,0,0,1,.07,7.22,13.63,13.63,0,0,1-2.38,1.5,23,23,0,0,1-7,.77c-2.38,0-4.75,0-7.13.08-4.84.1-9.68.15-14.52-.1-1.45-.06-2.9-.19-4.34-.33-8.8.33-17.59.72-26.4.41a21.24,21.24,0,0,1-4.76-.53c-1.67-.51-3.11-1.3-3.71-3.09-.75-4.19.61-7.39,5.15-7.4,21.17,0,42.37-1.07,63.53.57C427.07,199.82,427.55,200.36,428.05,200.68Z" transform="translate(-198.56 -182.02)"/><path class="cls-153" d="M428.05,200.68c-20.47,0-40.94.16-61.41,0-5.1,0-8.91.53-7.46,7.06,4.4,7.64,2.11,16,2.47,24-.18,7.84.42,15.69-.3,23.52a9.91,9.91,0,0,1-1,3c-.35.39-.7.79-1.06,1.18l-2.23-2.23a531.29,531.29,0,0,1,0-56.44l2.06-1.91A571.12,571.12,0,0,1,428,199,3.54,3.54,0,0,1,428.05,200.68Z" transform="translate(-198.56 -182.02)"/><path class="cls-154" d="M355.49,265.92a12.31,12.31,0,0,0,0-1.49h72.11v1.49Z" transform="translate(-198.56 -182.02)"/><path class="cls-155" d="M426.26,207.85l1.86,0q0,24.72.05,49.44a4.45,4.45,0,0,1-5.32.58c-.88-6-1.34-11.93-.06-17.92,1.62-7.55,2.1-15.25-.1-22.63C421.3,212.73,422.65,210.11,426.26,207.85Z" transform="translate(-198.56 -182.02)"/><path class="cls-156" d="M428,199l-68.86-.12c1-.53,2-1.53,3-1.54q32.5-.17,65-.13c.25,0,.67.15.72.32A7.79,7.79,0,0,1,428,199Z" transform="translate(-198.56 -182.02)"/><path class="cls-157" d="M428.11,259.1c.57,1.88-.83,1.74-1.89,1.74q-31.91,0-63.8-.09c-1,0-2.08-.82-3.13-1.26l-.22-.69a7.68,7.68,0,0,1,4.78-1.95C385.28,257.43,406.84,254.11,428.11,259.1Z" transform="translate(-198.56 -182.02)"/><path class="cls-158" d="M428.11,259.1l-69-.3c0-.5.08-1,.13-1.5,6.57-4.5,14-2.18,21-2.54,8.24,0,16.47-.44,24.71,0,6,.15,12.31-1.55,17.77,2.55l5.45,0Z" transform="translate(-198.56 -182.02)"/><path class="cls-159" d="M357.07,200.82q0,28.23,0,56.44c-3.29-12.38-1-25-1.33-37.49C355.58,213.51,353.8,206.92,357.07,200.82Z" transform="translate(-198.56 -182.02)"/><path class="cls-160" d="M438.3,301.64l-10.07-.09c3-4,6.9-1.14,10.4-1.29a1.12,1.12,0,0,1,.16.71A2.35,2.35,0,0,1,438.3,301.64Z" transform="translate(-198.56 -182.02)"/><path class="cls-161" d="M613.89,416.39q-.2,17.61-.4,35.23c-5.56,1.1-7.72-.84-7.39-6.79.42-7.5,0-15.07-.29-22.6-.22-5.59,2-8.25,7.73-7.39a1,1,0,0,1,.62.94C614.11,416.18,614,416.39,613.89,416.39Z" transform="translate(-198.56 -182.02)"/><path class="cls-1" d="M643.76,359.87c-.24,1.21-.47,2.43-.7,3.65.82,8.26,3.72,16.65-1.38,24.58C635.74,381.83,637.1,363.37,643.76,359.87Z" transform="translate(-198.56 -182.02)"/><path class="cls-162" d="M641.68,388.1c1.1-8.16-1.22-16.51,1.38-24.58l.75,1.69c3.88,11.69,3.5,23.41.21,35.14l-.48,1.83c-1.62-.63-1.59-2.14-1.88-3.49a5.66,5.66,0,0,1,0-7Z" transform="translate(-198.56 -182.02)"/><path class="cls-105" d="M583.81,462c4.62-2.24,9.2-2.74,13.64.4C592.91,464.24,588.37,464.69,583.81,462Z" transform="translate(-198.56 -182.02)"/><path class="cls-163" d="M613.89,416.39a4.91,4.91,0,0,1-.35-1.55c1.8-2.82,4.68-1.74,7.2-2a11.71,11.71,0,0,0,.06,1.67C619,417.13,616.31,416.18,613.89,416.39Z" transform="translate(-198.56 -182.02)"/><path class="cls-1" d="M641.62,391.67c0,2.34,0,4.68,0,7C637,396.38,637,394,641.62,391.67Z" transform="translate(-198.56 -182.02)"/><path class="cls-164" d="M607.71,461.43c2-1.51,4.4-2,5.08,0,.8,2.33-1.66,1.36-2.81,1.21A7.57,7.57,0,0,1,607.71,461.43Z" transform="translate(-198.56 -182.02)"/><path class="cls-165" d="M556.74,425.18c2.42-3.32,5.39-3.43,5.81.72.75,7.47.25,15.07.24,22.62,0,2.07-1,3.22-3.18,3.1-2.48-.13-2.48-1.94-2.51-3.68-.13-5.81-.22-11.61-.33-17.41C555.58,428.75,555.32,427,556.74,425.18Z" transform="translate(-198.56 -182.02)"/><path class="cls-166" d="M574.61,423.6v27.83h-2.54c-2-5.61-.13-11.67-1.16-17.38C568.45,425.7,568.87,424.52,574.61,423.6Z" transform="translate(-198.56 -182.02)"/><path class="cls-167" d="M556.74,425.18l0,5.35c-4.61-.47-7.19.93-6.87,6.24.3,4.91-.11,9.87-.24,14.81,0,.16-.39.41-.61.43a2.49,2.49,0,0,1-.84-.24c-3.7-8.89-4.16-17.74.3-26.54l1.47-1.76A10.31,10.31,0,0,1,556.74,425.18Z" transform="translate(-198.56 -182.02)"/><path class="cls-168" d="M574.61,423.6c-7.28,1.35-1.36,7.36-3.7,10.46-6.62-4.85-1.78-11.82-3.26-17.62,1.75-2,3.9-1.92,6.18-1.24a4,4,0,0,1,1.95,1.79,5.82,5.82,0,0,1-.92,6.3Z" transform="translate(-198.56 -182.02)"/><path class="cls-26" d="M542.87,430.54c.34-2.4-.86-5.23,2-6.94a51.86,51.86,0,0,1,0,28l-1.85.07-1.83-8.81C541.62,438.77,540,434.34,542.87,430.54Z" transform="translate(-198.56 -182.02)"/><path class="cls-169" d="M574.68,416.32l-7,.12H553.53c-2.4-.32-5.12.73-7.09-1.56,8.9-4.82,18.14-2.93,27.36-1.37A2,2,0,0,1,574.68,416.32Z" transform="translate(-198.56 -182.02)"/><path class="cls-112" d="M548.51,425.23l-.3,26.54-1.73-.32a86.71,86.71,0,0,1,0-27.66Z" transform="translate(-198.56 -182.02)"/><path class="cls-170" d="M546.49,423.79q0,13.83,0,27.66l-.81.23-.85,0v-28A2.36,2.36,0,0,1,546.49,423.79Z" transform="translate(-198.56 -182.02)"/><path class="cls-171" d="M574.68,416.32l-.07-1.88a3.79,3.79,0,0,1-.06-5.05l3.73,1.7a5.08,5.08,0,0,1,3.39,5.34l-3.42,0a2.36,2.36,0,0,1-3.5,0Z" transform="translate(-198.56 -182.02)"/><path class="cls-172" d="M574.75,416.4h3.5c-.44,2.63,1.43,6.42-3.39,6.89Q574.8,419.86,574.75,416.4Z" transform="translate(-198.56 -182.02)"/><path class="cls-173" d="M562.44,462.69c-1,1.31-1.78,3-3.84,2.77-1.47-.17-1.41-1.58-1.43-2.64,0-2.32,1.43-2.83,3.4-2.55A2.09,2.09,0,0,1,562.44,462.69Z" transform="translate(-198.56 -182.02)"/><path class="cls-49" d="M922.83,400.54c-.12-12.33-.14-24.65-.39-37-.08-3.91.85-5.95,5.32-5.87,12.62.21,25.25.14,37.87.06,5.2,0,7.43,2.3,7.28,7.51-.3,11.15-.38,22.3-.54,33.45a8,8,0,0,1-7.92,4.5c-11.46-.3-22.93-.39-34.4.07A10.06,10.06,0,0,1,922.83,400.54Z" transform="translate(-198.56 -182.02)"/><path class="cls-174" d="M922.83,400.54c14.33.9,28.69-1.13,43,.56,2,.24,4.33-1.53,6.5-2.38,1.28,2.82-.4,4.88-1.78,7l0,0c-13.9.06-27.8.08-41.71.19C925.15,405.94,921.59,406,922.83,400.54Z" transform="translate(-198.56 -182.02)"/><path class="cls-175" d="M1040,397.19l4.72.06A3.11,3.11,0,0,1,1045,400c-1.86,14-2.12,27.91.39,41.83-2,2.74-4.23,2.55-6.49.29-.27-13.09-.08-26.18-.09-39.27C1038.76,400.93,1038,398.74,1040,397.19Z" transform="translate(-198.56 -182.02)"/><path class="cls-176" d="M1044.55,398.81a13.77,13.77,0,0,0,.17-1.56l2,1.52c.91,15.29,2,30.58-.55,45.82l-6.37.06c-.61-.39-.81-.79-.61-1.2s.4-.6.6-.6c1.86,0,4,.85,4.9-1.76A121.79,121.79,0,0,1,1044.55,398.81Z" transform="translate(-198.56 -182.02)"/><path class="cls-177" d="M1039.81,442.85c0,.6,0,1.2,0,1.8-3.43-2.7-1.86-6.5-1.93-9.8-.2-9.92-.15-19.86,0-29.78,0-2.72-1.24-6,2.12-7.88Q1039.91,420,1039.81,442.85Z" transform="translate(-198.56 -182.02)"/><path class="cls-178" d="M1046.19,444.59q.27-22.9.55-45.82C1049.12,414.08,1050.29,429.37,1046.19,444.59Z" transform="translate(-198.56 -182.02)"/><path class="cls-179" d="M1064.08,457l.06-5.14,1.91-.13c-.46,3.49,1.44,7.36-1.63,10.44C1062.68,460.59,1063.2,458.83,1064.08,457Z" transform="translate(-198.56 -182.02)"/><path class="cls-180" d="M546.49,409.67l24.68,0c1.07,1.87.73,3.7-1.45,3.82-7.47.4-15,.83-22.4-.5C545.46,412.61,545.52,411.08,546.49,409.67Z" transform="translate(-198.56 -182.02)"/><path class="cls-181" d="M546.49,409.67c6.78,4.64,19.54,4.62,24.68,0l3.38-.24.06,5.05-28.17.44C544.44,413.12,543.62,411.37,546.49,409.67Z" transform="translate(-198.56 -182.02)"/><path class="cls-2" d="M542.87,430.54c-.59,4.12,1.68,8.64-1.73,12.36C538.88,438.39,536.93,433.92,542.87,430.54Z" transform="translate(-198.56 -182.02)"/><path class="cls-182" d="M1064.08,457c.11,1.73.23,3.45.34,5.17q-2.24,9.65-4.46,19.29l-5.16-10.73a2.05,2.05,0,0,0-.51-.71c-1.8-1.36-3.46-4.9-5.39-3.75-9.24,5.48-20.77-11.59-28.76,3.11-4.63-1.51-10.9,3.54-14.14-3.54,1.67-2.56,5.4-1,7.07-3.53,3.53-1.19,8.76,2.83,10.6-3.48,10.41,0,20.82-.05,31.23,0C1058.09,458.83,1061.29,459,1064.08,457Z" transform="translate(-198.56 -182.02)"/><path class="cls-183" d="M364.41,557.84c.8,3.1,5.7,3.3,5.17,7.34q-7-3.79-14-7.61a2.67,2.67,0,0,1-1.83-1.37,5.41,5.41,0,0,1-.47-1.67C357.51,553.9,360.4,557.75,364.41,557.84Z" transform="translate(-198.56 -182.02)"/><path class="cls-184" d="M353.76,556.2l1.83,1.38c-.22,1.32-.41,3.51-2,2.84C351.25,559.44,353.48,557.65,353.76,556.2Z" transform="translate(-198.56 -182.02)"/><path class="cls-185" d="M320.21,478.35v5.21h0c-3.53-.15-3.58-2.65-3.54-5.21Z" transform="translate(-198.56 -182.02)"/><path class="cls-93" d="M747.73,434.07q0,5.28,0,10.58c-4.58-1.46-10.78,3.55-14-3.5,3.12-.37,6.42.84,9.85-1.33-1.68-3.27-3.26-6.6-5.07-9.79-1-1.66-1.44-3.29-.52-4.95.81-1.44,2.35-1.6,3.86-1.24,2.19.52,2.34,2.33,2.46,4.12C744.54,430.52,743.9,433.52,747.73,434.07Z" transform="translate(-198.56 -182.02)"/><path class="cls-186" d="M712.45,441.36c-.16,1.17-.78,2.75-1.85,2.18a10,10,0,0,1-4-4c-.57-1.09,1.07-1.73,2.23-1.78C711.31,437.64,712.52,438.88,712.45,441.36Z" transform="translate(-198.56 -182.02)"/><path class="cls-187" d="M733.81,441.15h-3.54c.19-2.13-.56-4.54,1.44-6.33C734.85,436.47,733.37,439.09,733.81,441.15Z" transform="translate(-198.56 -182.02)"/><path class="cls-56" d="M708.82,381c-1,.47-2.28.71-3.05,1.46-2.92,2.83-4.29-.15-5.43-1.69-2.43-3.27,1-2.73,2.59-3.51,2-1,3.93-2.21,5.9-3.33A5.68,5.68,0,0,1,708.82,381Z" transform="translate(-198.56 -182.02)"/><path class="cls-188" d="M708.82,381c0-2.36,0-4.71,0-7.07,0-1.18,0-2.35,0-3.53l1.73-3.83c-.4,11.95,2.06,24-1.38,35.87-.13-.71-.25-1.43-.37-2.15q0-6.1.05-12.21Z" transform="translate(-198.56 -182.02)"/><path class="cls-189" d="M644,400.35l-.21-35.15a10.3,10.3,0,0,1,6.81-1.79q-.11,18.38-.24,36.76c0,.19-.31.49-.52.53a2.06,2.06,0,0,1-.84-.2c-3.9-7.13-.61-14.83-1.83-20.95-1.23,6,2.13,13.72-1.88,20.75l-.64.05Z" transform="translate(-198.56 -182.02)"/><path class="cls-190" d="M645.31,400.3V368l3.71-.16V400.5Z" transform="translate(-198.56 -182.02)"/><path class="cls-191" d="M320.21,483.56h3.53c3.07-2.52,6.75-1.73,10.2-1.73q246.09-.06,492.18,0c3.46,0,7.13-.79,10.2,1.73-1.13,5.4-5.51,3.44-8.61,3.45-28.25.14-56.51.08-84.77.08q-206.18,0-412.36-.13c-3.51,0-8.61,2.76-10.37-3.4Z" transform="translate(-198.56 -182.02)"/><path class="cls-185" d="M836.32,483.56H323.74c-.2-1.3-1.43-3.09,1-3.4a53.4,53.4,0,0,1,7.05-.13q248.28,0,496.56.21C830.72,480.25,836.34,476.29,836.32,483.56Z" transform="translate(-198.56 -182.02)"/><path class="cls-192" d="M1021.36,490.62c.26,6.9-6.23,13.65-13.32,13.84-6.94.19-13.72-6.21-14-13.24s5.88-13.36,13.36-13.53A13.49,13.49,0,0,1,1021.36,490.62Z" transform="translate(-198.56 -182.02)"/><path class="cls-193" d="M1013.07,462.35c-.58,4.73-4.29,3.2-7.07,3.53H978.91v-3.53Z" transform="translate(-198.56 -182.02)"/><path class="cls-182" d="M1020,469.33c2.15.61,4.87-1,6.47,2.39C1023.31,473.36,1021.07,473.46,1020,469.33Z" transform="translate(-198.56 -182.02)"/><path class="cls-194" d="M482.44,396.64c12-.05,13.05.87,13.12,11.85.09,12.56-1.44,14.42-11.82,14.36-12.16-.06-14.14-1.76-14.2-12.18C469.48,397.8,470.5,396.69,482.44,396.64Z" transform="translate(-198.56 -182.02)"/><path class="cls-195" d="M370.92,409.6c0-12.13.78-12.91,12.88-12.94s13,.81,13,12.84c0,11.78-1.82,13.43-14.69,13.33C372.59,422.75,370.91,420.77,370.92,409.6Z" transform="translate(-198.56 -182.02)"/><path class="cls-196" d="M436.75,409.19c0-11.82.7-12.51,13.43-12.55,11.48,0,12.87,1.42,12.86,13.4,0,10.72-2,12.74-12.83,12.83C438.27,423,436.79,421.48,436.75,409.19Z" transform="translate(-198.56 -182.02)"/><path class="cls-197" d="M405,418.38c-2.29-6.82-3.69-13.58,1.52-19.83a66.3,66.3,0,0,1,20.52-.06c4.63,7,4.1,14.13.69,21.37-5.45,2.67-11.16,2-16.86,1.33C408.27,421.54,407.91,417.25,405,418.38Z" transform="translate(-198.56 -182.02)"/><path class="cls-198" d="M411.52,393c-2.77,3.64-6.64,1.11-9.12,3.15-1.57,1.29-3.35,3.39-4.16-.45-.51-2.41.86-3.94,3.35-3.92C404.68,391.78,407.89,390.91,411.52,393Z" transform="translate(-198.56 -182.02)"/><path class="cls-199" d="M408.57,419.87h19.12c-7.08,4.69-14.25,4.25-21.48.36A1.56,1.56,0,0,1,408.57,419.87Z" transform="translate(-198.56 -182.02)"/><path class="cls-200" d="M427,398.49l-20.52.06A25.25,25.25,0,0,1,427,398.49Z" transform="translate(-198.56 -182.02)"/><path class="cls-201" d="M408.57,419.87l-2.36.35L405,418.38c.49-1.62-.72-4.87,2.12-4.31C409.66,414.58,408.2,417.84,408.57,419.87Z" transform="translate(-198.56 -182.02)"/><path class="cls-202" d="M268.19,549.65c-2.57-5.08,3-7.58,3.6-11.59.19-1.34,2.22.4,3.27,1.24,1.76,1.39,3.15,2.69.6,4.66C273.27,545.82,271.9,549,268.19,549.65Z" transform="translate(-198.56 -182.02)"/><path class="cls-203" d="M974,437c0,1.44,0,2.74-1.33,3.05-1.66.39-1.73-1.11-1.88-2.19s0-2.46,1.3-2.78C973.81,434.65,973.64,436.29,974,437Z" transform="translate(-198.56 -182.02)"/><path class="cls-204" d="M472.11,370.08l-3.43.13c-3.71-2-9.15,2-11.84-3.47a56.47,56.47,0,0,0,.05-13.81c4.72-4.61,10.49-2.06,15.77-2,2.84,0,3.13,3,3.12,5.45,0,3.53.08,7.05.13,10.58a1.67,1.67,0,0,1,.45,1.3c0,.47-.11.7-.21.7A4.08,4.08,0,0,1,472.11,370.08Z" transform="translate(-198.56 -182.02)"/><path class="cls-205" d="M424.52,351a51.77,51.77,0,0,1,6.08-.35c3.88.22,9.6-1.79,11.1,2A16.07,16.07,0,0,1,439.06,369c-3.68,0-7.4,1.45-11-.29-1.43,0-3.09.44-3.68-1.57-.14-4.81-1.24-9.62,0-14.44A3.25,3.25,0,0,1,424.52,351Z" transform="translate(-198.56 -182.02)"/><path class="cls-206" d="M408.85,352.34c2.42,3.78,1.9,8.22,1,11.9-2.34,9.67-9.92,4.79-15.7,4.74.12-.38.25-.75.37-1.13,2.73-3.88,1.57-7.54-.65-11.14a5.55,5.55,0,0,1-.37-2.45C398.08,349.25,403.74,353,408.85,352.34Z" transform="translate(-198.56 -182.02)"/><path class="cls-207" d="M475.56,368.16a1.34,1.34,0,0,1,.35-1.22c14.15,9.84,8.58-5.63,12.78-11.21,2,7,.83,12.72,1.19,18.23H475.75C474.18,372.08,474.34,370.14,475.56,368.16Z" transform="translate(-198.56 -182.02)"/><path class="cls-208" d="M422.71,374H408.59Q415.66,365.44,422.71,374Z" transform="translate(-198.56 -182.02)"/><path class="cls-209" d="M408.85,352.34c-2.53,2.48-5.3-.19-8,.34s-5.94-.63-6.43,3.59a2.28,2.28,0,0,1-3.39,0c-.86-4.37,1.4-6,5.33-5.64C400.54,351.05,405.1,348.86,408.85,352.34Z" transform="translate(-198.56 -182.02)"/><path class="cls-206" d="M391,356.28h3.39l0,0c2.37,4,2.6,8,.24,12.12l-.52.56C387.91,366,391.54,360.65,391,356.28Z" transform="translate(-198.56 -182.02)"/><path class="cls-210" d="M424.33,352.67c.36,4.82,2.16,9.63,0,14.44A19.33,19.33,0,0,1,424.33,352.67Z" transform="translate(-198.56 -182.02)"/><path class="cls-211" d="M390.89,374h-7c.18-2.45,1.5-3.55,3.95-3.4C390,370.7,390.69,372.08,390.89,374Z" transform="translate(-198.56 -182.02)"/><path class="cls-212" d="M456.89,352.93a17.36,17.36,0,0,1-.05,13.81A35.46,35.46,0,0,1,456.89,352.93Z" transform="translate(-198.56 -182.02)"/><path class="cls-210" d="M428,368.68c3.66.62,7.41-2.05,11,.29-.25.44-.52.87-.79,1.3C434.93,369.26,431.15,371.13,428,368.68Z" transform="translate(-198.56 -182.02)"/><path class="cls-140" d="M475.56,368.16c.06,1.93.13,3.87.19,5.8-2.51-.07-3.53-1.55-3.64-3.88Z" transform="translate(-198.56 -182.02)"/><path class="cls-213" d="M422.72,257.31H405.05a6.47,6.47,0,0,1-1.81-3.11,54.92,54.92,0,0,1-1.06-7.11,5.87,5.87,0,0,1,1.36-3.19c2.29-2.46,3.86-5.48,6.1-8a4.76,4.76,0,0,1,1.76-.84.78.78,0,0,0,1.1-.73.51.51,0,0,0-.5-.63c-1.73-2.35-1.92-5.24-3-7.81-.64-1.76-1.38-3.5-1.06-5.42.4-.39.94-1.09.72-1.37-.46-.57-1.27.17-1.94-.08-4-3.29-12.94-1.72-10.89-11l16.3-.17c2.36,2.25,4.7,2.24,7.05,0h7.08c-1.23,3.27-1.14,6.22-.68,9.94,1,8.1,2,16.54-1,25C423,247.06,427.49,252.87,422.72,257.31Z" transform="translate(-198.56 -182.02)"/><path class="cls-214" d="M395.83,208c.7,7.72,8.65,6,12.5,9.59a2.43,2.43,0,0,1,.57,3.12l1.65,4.27c.73,1.65.94,3.22-.67,4.51-1.21,1-2.55-.67-3.78.16a7,7,0,0,1,1.22,1.16c.27,2.25-1.13,3.53-2.63,4.76-2.14,1.51-1.57,3.05,0,4.58.89,1.34,1.77,2.68.36,4.2l-1.75,2.37c-2,1.74-3.91,1.47-5.82-.11-2.66.44.1-8.86-5.52-3.06a9.78,9.78,0,0,0-3.15,5.63c-1.07,2.57-2,5.3-5.44,5.5a3.4,3.4,0,0,1-2-1.13c-1.74-3,.64-6.87-2.27-9.54-.74-.88-1.46-1.78-2.16-2.69-5.31-3.59-6.27-7.83-2.69-13.42,1.48-2.32,1.44-5.53,2.71-8.15a10,10,0,0,1,2.19-2.86c3.74-4.17,9.57-5.21,13.54-9Z" transform="translate(-198.56 -182.02)"/><path class="cls-215" d="M378.47,220.24c-2.66,4.3-.63,10.26-5.41,14-2.38,1.86.68,1.85,1.57,2,2.84.54,3.31,2.8,4,5-5.65,3.9-10-.05-14.56-2.48-2.39-1.29-3.14-4.19-4.88-6.16q0-12.4,0-24.8l3.45.06c1.17,1.69,2.34,1.72,3.53,0l26.53,0c.21,2.91-.48,4.87-4,5.32-3.2.41-5.56,2.74-7.89,4.87C379.11,217.76,377.63,217.73,378.47,220.24Z" transform="translate(-198.56 -182.02)"/><path class="cls-216" d="M366.16,207.86c-.45,2,1,4.66-1.77,6.12-2.81-1.48-1.32-4.09-1.76-6.14Z" transform="translate(-198.56 -182.02)"/><path class="cls-155" d="M419.18,207.85c-.19,2.44-1.51,3.54-3.95,3.38-2.14-.13-2.89-1.5-3.1-3.37Z" transform="translate(-198.56 -182.02)"/><path class="cls-146" d="M359.2,232.58c5.89,4.2,11.71,8.58,19.44,8.65l1.62,2.06c3.35,2.91-1.13,7.46,2.19,10.37v-.27c.88,2.19-.94,2.89-2.16,3.93l-21.1,0Z" transform="translate(-198.56 -182.02)"/><path class="cls-217" d="M380.3,257.32l2.16-3.93c3.34-.08,3.6-3.07,4.85-5.13,8.7-3.34,12.62-2.23,17.51,5,.07,1.36.15,2.72.23,4.08Z" transform="translate(-198.56 -182.02)"/><path class="cls-218" d="M1044.55,398.81q.08,21.13.16,42.28c-2-.27-3.27-1.31-3.27-3.42q-.06-17.66,0-35.32A3.25,3.25,0,0,1,1044.55,398.81Z" transform="translate(-198.56 -182.02)"/><path class="cls-219" d="M486.28,414.36c-8,3.36-8.93,2.43-8.46-8.49a1.41,1.41,0,0,1,2.07-.05,12,12,0,0,0,6.5,6.46A1.43,1.43,0,0,1,486.28,414.36Z" transform="translate(-198.56 -182.02)"/><path class="cls-220" d="M486.28,414.36c0-.5.06-1,.05-1.52a30.71,30.71,0,0,0-7-7l-.75,0h-.74a6.06,6.06,0,1,1,8.46,8.49Z" transform="translate(-198.56 -182.02)"/><path class="cls-221" d="M380.35,414.86c-3-2.83-2.74-7.18-.92-9.25,2.4-2.73,6.67-2.49,9.94.27C390.48,416,390.48,416,380.35,414.86Z" transform="translate(-198.56 -182.02)"/><path class="cls-222" d="M380.35,414.86c6.87.89,10-2,9-9,2.36,3.05,2.65,6.9.26,9.26S383.4,417.21,380.35,414.86Z" transform="translate(-198.56 -182.02)"/><path class="cls-223" d="M454.44,404.32a2.84,2.84,0,0,0,.4,1.48,6.08,6.08,0,0,1,.05,7.15l-.59-.16c-2.29,2.81-5.84.88-8.51,2.26a1.38,1.38,0,0,1-1.7-.92q0-4.68,0-9.38C447.43,401.87,450.92,402.77,454.44,404.32Z" transform="translate(-198.56 -182.02)"/><path class="cls-224" d="M454.89,413c0-2.38,0-4.77-.05-7.15C459.5,408.15,459.46,410.53,454.89,413Z" transform="translate(-198.56 -182.02)"/><path class="cls-225" d="M445.7,414.17c2.21-4.55,5.94.4,8.6-1.38a3.74,3.74,0,0,1,.16,1.63C451.5,415.92,448.56,416.37,445.7,414.17Z" transform="translate(-198.56 -182.02)"/><path class="cls-226" d="M445.7,414.17l8.76.25c-3.54,2.9-7,3.28-10.38-.29A2.88,2.88,0,0,0,445.7,414.17Z" transform="translate(-198.56 -182.02)"/><path class="cls-227" d="M454.44,404.32l-10.34.43C447.39,400.92,450.86,401.36,454.44,404.32Z" transform="translate(-198.56 -182.02)"/><path class="cls-228" d="M412.16,412.85c-.42-9.67,0-10,8.93-7.13C420.72,411.37,420.4,417.07,412.16,412.85Z" transform="translate(-198.56 -182.02)"/><path class="cls-229" d="M412.16,412.85c6.28,1.76,6.52-4,8.93-7.13,2.07,2.44.51,5.53,1.49,8.17-3.27,2.95-6.82,1.76-10.35.67A1.82,1.82,0,0,1,412.16,412.85Z" transform="translate(-198.56 -182.02)"/><path class="cls-230" d="M412.23,414.56l10.35-.67c-2.75,4.27-6.79,2.21-10.42,2.08-.12,0-.31-.44-.29-.66A2.25,2.25,0,0,1,412.23,414.56Z" transform="translate(-198.56 -182.02)"/><path class="cls-231" d="M394.68,368.42l-.24-12.12C399.7,360.93,399.79,365.41,394.68,368.42Z" transform="translate(-198.56 -182.02)"/><path class="cls-232" d="M404.82,253.22c-4.52-6.3-11.37-4.39-17.51-5,.07-2.34-.05-4.8,3.25-5.08,2.46-.18,4.94-.54,7.1,1.16,1.17,2.44,3.44,2.34,5.63,2.41C404.41,248.77,405.83,250.71,404.82,253.22Z" transform="translate(-198.56 -182.02)"/><path class="cls-233" d="M408.21,229.17c1.79-.82,2.1-2.47,2.34-4.16,2.51,2.48.49,6.83,3.73,9-.16,1.23-1.32,1.43-2.09,2l-.67.25h-.71a7.86,7.86,0,0,1-3.93,1.44c-2-.27-3.77-.73-3.87-3.23l3.81-3.43A2.71,2.71,0,0,1,408.21,229.17Z" transform="translate(-198.56 -182.02)"/><path class="cls-232" d="M406.41,236.3h4.4c-1,3.35-2.63,6.26-5.77,8.09-.55-1-1.09-1.95-1.63-2.92C401.84,238.25,404.86,237.7,406.41,236.3Z" transform="translate(-198.56 -182.02)"/><path class="cls-234" d="M408.9,220.74l-.57-3.12c1.23-1.51,3.36-4,4.52-2.06C414.64,218.56,410.17,218.86,408.9,220.74Z" transform="translate(-198.56 -182.02)"/><path class="cls-235" d="M412.19,236.05l2.09-2c1.51.37,4.11.5,2.91,2.63C415.89,239,413.91,236.25,412.19,236.05Z" transform="translate(-198.56 -182.02)"/><path class="cls-236" d="M397.66,244.34c-2.5.41-5.07,1.3-7.1-1.16,1.05-1.57,2.24-4.54,3.13-4.45C396.52,239,397.09,241.88,397.66,244.34Z" transform="translate(-198.56 -182.02)"/><path class="cls-237" d="M388.46,236.54c-.84,1.41-.63,3.62-2.56,4.07-1.65.38-2.53-1.21-3.09-2.43-1.11-2.44,1-2.84,2.56-3.21C386.68,234.65,388.25,234.43,388.46,236.54Z" transform="translate(-198.56 -182.02)"/><path class="cls-238" d="M386.22,227.53c0,2.44-1.28,3-2.78,3.23s-3.07,0-3-2c0-1.77.49-3.85,2.78-3.56C384.38,225.37,385.39,226.86,386.22,227.53Z" transform="translate(-198.56 -182.02)"/><path class="cls-239" d="M389.43,217.71c2.1.35,2.75,1.49,2.4,3.11-.29,1.35-.59,3.18-2.57,2.6-1.53-.45-3.64-1.28-2.93-3.39C386.69,219,388.48,218.38,389.43,217.71Z" transform="translate(-198.56 -182.02)"/><path class="cls-240" d="M408.21,229.17l-1.39,1.9c-1.78-.47-4.42.28-4.81-2.31-.27-1.74,1.47-3.22,3-3.53C408.09,224.62,406.46,228.37,408.21,229.17Z" transform="translate(-198.56 -182.02)"/><path class="cls-241" d="M406.41,236.3l-3,5.16c-3.14-2.15-6.52-4.28-.4-7Z" transform="translate(-198.56 -182.02)"/><path class="cls-242" d="M398,218.2c2.74.34,4.47,1.56,4,2.6a5.67,5.67,0,0,1-3.88,2.65c-1.84.31-1.93-1.53-1.82-3C396.44,218.7,397.56,218.17,398,218.2Z" transform="translate(-198.56 -182.02)"/><path class="cls-217" d="M382.45,253.66c-3.93-2.78-1.41-6.92-2.19-10.37C386.9,245.5,381.17,250.32,382.45,253.66Z" transform="translate(-198.56 -182.02)"/><path class="cls-243" d="M378.47,220.24c-1.3-1.4-5.12-2.13-2.92-4.57,1.84-2,3.68,1.08,5.29,2.4Z" transform="translate(-198.56 -182.02)"/><path class="cls-244" d="M479.31,405.88c5.58-.95,7.84,1.45,7,7C480.91,413.63,478.5,411.38,479.31,405.88Z" transform="translate(-198.56 -182.02)"/><path class="cls-245" d="M387.19,409.53c-.07,2.15-1.25,3.14-3.31,3.13s-3.28-1-3.36-3.09c-.1-2.58,1.27-3.73,3.75-3.56C386.41,406.16,387.25,407.51,387.19,409.53Z" transform="translate(-198.56 -182.02)"/></svg>