<svg id="Layer_1" data-name="Layer 1" xmlns="http://www.w3.org/2000/svg" viewBox="0 0 880.93 31.56"><defs><style>.cls-1{fill:#6dbbe1;}</style></defs><title>wave-1</title><path class="cls-1" d="M1033.92,346.62c-10.66,0-20.52-5.51-30.06-10.83-9-5-17.48-9.76-25.91-9.76s-16.06,4.75-24.13,9.79c-8.38,5.23-17.06,10.65-27.17,10.65-9.82,0-19-5.41-27.92-10.64s-18.3-10.77-28.14-10.77c-9.5,0-17.47,5.05-25.9,10.39-8.68,5.49-17.65,11.17-28.6,11.17-11.39,0-21.64-6-31.55-11.72-8.47-4.93-16.48-9.58-24-9.83-7-.24-13,4-20,8.89-8.37,5.88-17.84,12.54-31.24,12.54-12.81,0-21.81-6.11-29.76-11.5-7.52-5.1-14.62-9.92-24.66-9.92-10.24,0-17.76,4.94-25.72,10.18C620.71,340.78,612,346.5,600,346.5c-11.82,0-19.94-5.54-27.79-10.91s-15.39-10.51-27.06-10.51h0c-8.79,0-15.29,4.4-22.82,9.49-8.15,5.52-17.4,11.77-30.41,11.77-12.57,0-20.4-5.58-28-11-7.19-5.13-14-10-25.28-10s-18,4.75-25.34,9.79c-7.59,5.25-16.19,11.19-29.56,11.19-12.83,0-20.19-5.47-27.3-10.75-7.39-5.49-14.35-10.66-28.62-10.29-6,.16-12.17,4-19.27,8.37-9.36,5.8-20,12.38-33.86,12.6-11.32.17-20.62-5.73-29.63-11.44S228,324,219.44,326a5,5,0,1,1-2.23-9.75c12.62-2.87,23.09,3.77,33.22,10.19,8.12,5.15,15.79,10,24.11,9.88,11.14-.18,20.09-5.73,28.75-11.1,8-5,15.53-9.64,24.27-9.87,17.73-.46,26.82,6.3,34.85,12.26,6.6,4.91,11.82,8.78,21.34,8.78,10.25,0,16.56-4.36,23.87-9.41,7.85-5.43,16.75-11.57,31-11.57,14.5,0,23.31,6.28,31.09,11.83,6.86,4.9,12.79,9.13,22.16,9.13,10,0,17.17-4.88,24.81-10,8.14-5.51,16.57-11.21,28.42-11.21h0c14.75,0,24.28,6.51,32.69,12.26,7.2,4.91,13.42,9.16,22.15,9.16,9,0,15.8-4.45,23.63-9.6,8.43-5.54,18-11.82,31.22-11.82s22.23,6.18,30.27,11.64c7.41,5,14.41,9.78,24.15,9.78,10.23,0,17.64-5.21,25.48-10.72s15.73-11,26.08-10.7c10.09.33,19.57,5.84,28.75,11.17s17.83,10.37,26.52,10.37c8,0,15.44-4.67,23.25-9.62,8.83-5.59,18.85-11.94,31.25-11.94,12.57,0,23.54,6.46,33.21,12.15,8.1,4.76,15.75,9.26,22.85,9.26S941,332,948.53,327.33c8.9-5.56,18.11-11.3,29.42-11.3,11,0,21.07,5.6,30.78,11,8.81,4.92,17.13,9.56,25.19,9.56,12.21,0,18.22-4.59,25.19-9.9,7.16-5.46,15.28-11.66,30.14-11.66a5,5,0,0,1,0,10c-11.48,0-17.32,4.46-24.08,9.61C1057.83,340.27,1049.51,346.62,1033.92,346.62Z" transform="translate(-213.32 -315.06)"/></svg>